<svg width="54" height="55" viewBox="0 0 54 55" fill="none" xmlns="http://www.w3.org/2000/svg">
<rect y="0.583008" width="54" height="54" rx="12" fill="currentColor"/>
<path fill-rule="evenodd" clip-rule="evenodd" d="M26.9331 40.9604C27.1308 41.16 27.4515 41.16 27.6491 40.9604L33.3519 35.2028C33.5494 35.0035 33.5494 34.6804 33.3519 34.481L20.7962 21.8049C20.6065 21.6134 20.5 21.3538 20.5 21.0831V21.2621V34.0427C20.5 34.3134 20.6065 34.573 20.7962 34.7645L26.9331 40.9604Z" stroke="white"/>
<path d="M26.9326 27.7588L33.3519 20.7829C33.5494 20.5806 33.5494 20.2528 33.3519 20.0505L27.6487 14.208C27.451 14.0055 27.1303 14.0055 26.9326 14.208L20.7953 20.4953C20.6158 20.6791 20.5108 20.9248 20.5 21.1834C20.5108 21.4421 20.6158 21.6878 20.7953 21.8716" stroke="white"/>
</svg>
