<svg width="55" height="55" viewBox="0 0 55 55" fill="none" xmlns="http://www.w3.org/2000/svg">
<rect x="0.333008" y="0.583008" width="54" height="54" rx="12" fill="currentColor"/>
<g clip-path="url(#clip0_72_1148)">
<path d="M27.3327 23.323C26.6993 23.339 26.1037 23.5236 25.5814 23.8375C25.0999 24.1269 24.6252 24.4791 24.1477 24.8334C22.9781 25.7012 21.7919 26.5814 20.4478 26.5814H18.6473C18.4975 26.5814 18.376 26.4477 18.376 26.2827V24.0991C18.376 23.9342 18.4975 23.8005 18.6473 23.8005H23.1048C23.3204 23.8005 23.4499 23.537 23.3318 23.3384L21.4704 20.2083C21.3902 20.0734 21.4218 19.8927 21.5418 19.8002L23.0974 18.6014C23.2229 18.5047 23.3962 18.5415 23.4801 18.6825L25.6578 22.3444C25.8054 22.5927 26.1561 22.4777 26.1561 22.1809V17.9768C26.1561 17.8119 26.2776 17.6782 26.4275 17.6782H28.238C28.3878 17.6782 28.5093 17.8119 28.5093 17.9768V22.1809C28.5093 22.4777 28.86 22.5927 29.0077 22.3444L31.1853 18.6825C31.2692 18.5415 31.4425 18.5047 31.568 18.6014L33.1236 19.8002C33.2436 19.8927 33.2752 20.0734 33.195 20.2083L31.3336 23.3384C31.2155 23.537 31.345 23.8005 31.5606 23.8005H36.0181C36.1679 23.8005 36.2894 23.9342 36.2894 24.0991V26.2827C36.2894 26.4477 36.1679 26.5814 36.0181 26.5814H34.2175C32.8735 26.5814 31.6873 25.7012 30.5177 24.8334C30.0402 24.4791 29.5655 24.1269 29.084 23.8375C28.5617 23.5236 27.9662 23.3391 27.3327 23.323Z" fill="white"/>
<path d="M30.4735 27.5921C30.4735 29.5216 29.0652 31.0858 27.328 31.0858C25.5909 31.0858 24.1826 29.5216 24.1826 27.5921C24.1826 25.6626 25.5909 24.0984 27.328 24.0984C29.0652 24.0984 30.4735 25.6626 30.4735 27.5921Z" fill="white"/>
<path d="M28.238 37.5057C28.3878 37.5057 28.5093 37.372 28.5093 37.2071V33.003C28.5093 32.7063 28.8599 32.5912 29.0076 32.8395L31.1853 36.5014C31.2692 36.6424 31.4425 36.6791 31.568 36.5824L33.1236 35.3837C33.2436 35.2912 33.2752 35.1105 33.195 34.9756L31.3336 31.8455C31.2155 31.6469 31.345 31.3834 31.5606 31.3834H36.0181C36.1679 31.3834 36.2894 31.2497 36.2894 31.0848V28.9011C36.2894 28.7363 36.1679 28.6025 36.0181 28.6025H34.2175C32.8735 28.6025 31.6873 29.4826 30.5177 30.3504C30.0402 30.7047 29.5655 31.057 29.084 31.3464C28.5617 31.6603 27.9662 31.8448 27.3327 31.8609C26.6992 31.8448 26.1036 31.6603 25.5814 31.3464C25.0999 31.057 24.6252 30.7047 24.1477 30.3504C22.9781 29.4826 21.7919 28.6025 20.4478 28.6025H18.6473C18.4975 28.6025 18.376 28.7363 18.376 28.9011V31.0848C18.376 31.2497 18.4975 31.3834 18.6473 31.3834H23.1048C23.3204 31.3834 23.4499 31.6469 23.3318 31.8455L21.4704 34.9756C21.3902 35.1105 21.4218 35.2912 21.5418 35.3837L23.0974 36.5824C23.2229 36.6791 23.3962 36.6424 23.4801 36.5014L25.6578 32.8395C25.8054 32.5912 26.1561 32.7063 26.1561 33.003V37.2071C26.1561 37.372 26.2776 37.5057 26.4275 37.5057H28.238Z" fill="white"/>
</g>
<defs>
<clipPath id="clip0_72_1148">
<rect width="18" height="20" fill="white" transform="translate(18.333 17.583)"/>
</clipPath>
</defs>
</svg>
