<svg xmlns="http://www.w3.org/2000/svg" width="100%" height="100%" viewBox="0 0 91 44" fill="none">
    <path d="M51.885 21C51.885 21.557 51.7332 22.0095 51.4297 22.3575C51.135 22.7056 50.7361 22.9624 50.2332 23.1277C49.7303 23.2931 49.1754 23.3757 48.5684 23.3757H44.0293V14.1078H49.3878C49.8214 14.1078 50.1941 14.2253 50.5063 14.4603C50.8271 14.6865 51.0699 14.9823 51.2347 15.3479C51.4081 15.7134 51.4948 16.0919 51.4948 16.4835C51.4948 16.9099 51.382 17.3233 51.1566 17.7236C50.9398 18.1239 50.6104 18.4242 50.1682 18.6243C50.6971 18.7809 51.1132 19.055 51.4168 19.4467C51.7289 19.8383 51.885 20.356 51.885 21ZM49.3098 20.4779C49.3098 20.3212 49.2794 20.1864 49.2188 20.0732C49.1667 19.9513 49.093 19.8557 48.9976 19.786C48.9023 19.7164 48.7896 19.6816 48.6594 19.6816H46.5655V21.2349H48.5684C48.7071 21.2349 48.8328 21.2045 48.9456 21.1436C49.0583 21.0827 49.145 20.9956 49.2057 20.8825C49.2751 20.7694 49.3098 20.6345 49.3098 20.4779ZM46.5655 16.2747V17.6975H48.2953C48.408 17.6975 48.5164 17.6801 48.6205 17.6453C48.7245 17.6017 48.8112 17.5278 48.8805 17.4234C48.95 17.319 48.9846 17.171 48.9846 16.9796C48.9846 16.8055 48.9543 16.6706 48.8936 16.5749C48.8416 16.4705 48.7678 16.3965 48.6724 16.353C48.5858 16.3008 48.486 16.2747 48.3733 16.2747H46.5655Z" fill="white"/>
    <path d="M56.7805 23.4541C56.0782 23.4541 55.4409 23.3235 54.8686 23.0624C54.2963 22.7926 53.8021 22.4359 53.3859 21.992C52.9784 21.5395 52.6619 21.0348 52.4365 20.4779C52.2197 19.9122 52.1113 19.3292 52.1113 18.7287C52.1113 18.1108 52.2284 17.5234 52.4625 16.9665C52.6966 16.4095 53.0218 15.9135 53.4379 15.4784C53.8628 15.0346 54.3614 14.6865 54.9337 14.4341C55.5146 14.1818 56.1475 14.0556 56.8325 14.0556C57.5349 14.0556 58.1721 14.1904 58.7444 14.4602C59.3166 14.7213 59.8065 15.0781 60.2141 15.5306C60.6216 15.9831 60.9338 16.4922 61.1505 17.0579C61.376 17.6148 61.4887 18.1891 61.4887 18.7809C61.4887 19.3901 61.3716 19.9731 61.1375 20.5301C60.9121 21.087 60.587 21.5874 60.1621 22.0312C59.7459 22.4663 59.2516 22.8144 58.6794 23.0755C58.1071 23.3278 57.4742 23.4541 56.7805 23.4541ZM54.6865 18.7548C54.6865 19.0681 54.7299 19.3727 54.8166 19.6685C54.9033 19.9557 55.0334 20.2168 55.2068 20.4518C55.3802 20.678 55.5969 20.8608 55.8571 21C56.1259 21.1305 56.4424 21.1958 56.8065 21.1958C57.1707 21.1958 57.4872 21.1262 57.756 20.9869C58.0248 20.8477 58.2415 20.6606 58.4063 20.4256C58.5797 20.182 58.7054 19.9166 58.7835 19.6294C58.8701 19.3335 58.9135 19.0332 58.9135 18.7287C58.9135 18.4154 58.8701 18.1151 58.7835 17.828C58.6967 17.5408 58.5667 17.2841 58.3932 17.0579C58.2198 16.8229 57.9987 16.6401 57.7299 16.5096C57.4611 16.3791 57.149 16.3138 56.7935 16.3138C56.4293 16.3138 56.1129 16.3835 55.8441 16.5227C55.584 16.6619 55.3672 16.849 55.1938 17.084C55.0203 17.3102 54.8903 17.5713 54.8035 17.8671C54.7255 18.1543 54.6865 18.4502 54.6865 18.7548Z" fill="white"/>
    <path d="M64.71 18.8201V23.3757H62.1738V14.1078H64.1507L67.8574 18.8201V14.1078H70.3937V23.3757H68.3776L64.71 18.8201Z" fill="white"/>
    <path d="M75.6212 23.4541C74.8837 23.4541 74.2509 23.3322 73.7219 23.0886C73.193 22.8449 72.7593 22.5099 72.4215 22.0835C72.092 21.657 71.8492 21.1697 71.6931 20.6214C71.5371 20.0645 71.459 19.4814 71.459 18.8723V14.1078H73.9954V18.8723C73.9954 19.1769 74.0257 19.4684 74.0863 19.7468C74.1469 20.0253 74.2422 20.2733 74.3721 20.4909C74.5027 20.7084 74.6672 20.8825 74.8664 21.013C75.0749 21.1349 75.326 21.1958 75.6212 21.1958C75.9242 21.1958 76.1804 21.1349 76.3882 21.013C76.5961 20.8825 76.7613 20.7084 76.8825 20.4909C77.0124 20.2647 77.1077 20.0123 77.169 19.7338C77.2296 19.4553 77.2599 19.1682 77.2599 18.8723V14.1078H79.7956V18.8723C79.7956 19.5163 79.709 20.1167 79.5359 20.6737C79.3713 21.2306 79.1195 21.718 78.7811 22.1356C78.4434 22.5534 78.0097 22.8797 77.4807 23.1146C76.9605 23.3409 76.3406 23.4541 75.6212 23.4541Z" fill="white"/>
    <path d="M86.4575 17.1362C86.4575 17.1362 86.3832 17.0926 86.236 17.0056C86.0888 16.9186 85.8932 16.8229 85.6508 16.7185C85.4083 16.6053 85.1435 16.5053 84.8578 16.4182C84.5713 16.3312 84.2899 16.2877 84.012 16.2877C83.7956 16.2877 83.6173 16.3225 83.4788 16.3921C83.3402 16.4617 83.271 16.5792 83.271 16.7445C83.271 16.9012 83.3402 17.0274 83.4788 17.1231C83.6173 17.2188 83.8129 17.3059 84.064 17.3842C84.3245 17.4625 84.6319 17.5582 84.9876 17.6714C85.5599 17.8454 86.0542 18.0456 86.4705 18.2718C86.8862 18.4981 87.2073 18.7896 87.4324 19.1464C87.6583 19.4945 87.7709 19.9601 87.7709 20.5431C87.7709 21.1 87.6713 21.57 87.4714 21.9529C87.2722 22.3271 87.0038 22.6273 86.6654 22.8535C86.3269 23.0798 85.9503 23.2451 85.5339 23.3496C85.1175 23.4453 84.6925 23.4932 84.2588 23.4932C83.8172 23.4932 83.3532 23.4496 82.8676 23.3626C82.3906 23.2669 81.9266 23.1407 81.4756 22.9841C81.0253 22.8188 80.6133 22.6273 80.2402 22.4098L81.3327 20.1776C81.3327 20.1776 81.4193 20.2298 81.5932 20.3343C81.7664 20.4387 81.9959 20.5562 82.2824 20.6867C82.5681 20.8173 82.8849 20.9347 83.232 21.0391C83.587 21.1436 83.9428 21.1958 84.2985 21.1958C84.5756 21.1958 84.7661 21.161 84.8707 21.0914C84.9833 21.013 85.0396 20.9129 85.0396 20.7911C85.0396 20.6083 84.9443 20.4692 84.7531 20.3734C84.5626 20.269 84.3115 20.1733 83.999 20.0863C83.6953 19.9905 83.3575 19.8818 82.9845 19.7599C82.4469 19.5772 82.0045 19.3727 81.6582 19.1464C81.3111 18.9114 81.0556 18.6373 80.8904 18.3241C80.7259 18.0021 80.6436 17.6148 80.6436 17.1623C80.6436 16.4748 80.8038 15.9004 81.1249 15.4392C81.4453 14.978 81.866 14.6299 82.3863 14.3949C82.9152 14.1513 83.4831 14.0294 84.09 14.0294C84.541 14.0294 84.9747 14.086 85.391 14.1992C85.8153 14.3036 86.21 14.4341 86.5744 14.5908C86.9468 14.7474 87.2722 14.8954 87.55 15.0346L86.4575 17.1362Z" fill="white"/>
    <path d="M50.0918 31.5736C50.0918 32.015 49.9716 32.3736 49.7311 32.6495C49.4974 32.9253 49.1814 33.1288 48.7828 33.2598C48.3842 33.3908 47.9445 33.4564 47.4635 33.4564H43.8662V26.1115H48.1128C48.4564 26.1115 48.7519 26.2046 48.9992 26.3908C49.2535 26.5701 49.4459 26.8046 49.5764 27.0942C49.7139 27.3839 49.7826 27.6839 49.7826 27.9943C49.7826 28.3322 49.6933 28.6598 49.5146 28.977C49.3429 29.2942 49.0817 29.5322 48.7312 29.6908C49.1504 29.8149 49.4803 30.0322 49.7208 30.3426C49.9681 30.6529 50.0918 31.0632 50.0918 31.5736ZM48.051 31.1598C48.051 31.0357 48.027 30.9287 47.9788 30.8391C47.9376 30.7426 47.8792 30.6667 47.8036 30.6115C47.728 30.5563 47.6387 30.5288 47.5356 30.5288H45.8762V31.7598H47.4635C47.5734 31.7598 47.673 31.7357 47.7623 31.6874C47.8517 31.6391 47.9204 31.5702 47.9685 31.4805C48.0235 31.3909 48.051 31.2839 48.051 31.1598ZM45.8762 27.8287V28.9563H47.247C47.3363 28.9563 47.4223 28.9425 47.5047 28.915C47.5871 28.8805 47.6558 28.8219 47.7108 28.7391C47.7658 28.6563 47.7933 28.5391 47.7933 28.3873C47.7933 28.2494 47.7693 28.1425 47.7211 28.0667C47.6799 27.9839 47.6215 27.9253 47.5459 27.8908C47.4772 27.8495 47.3982 27.8287 47.3088 27.8287H45.8762Z" fill="#F5BF5B"/>
    <path d="M50.6729 33.4564V26.1115H52.6828V31.6977H56.0017V33.4564H50.6729Z" fill="#F5BF5B"/>
    <path d="M59.6008 33.5184C59.0442 33.5184 58.5391 33.415 58.0856 33.2081C57.6321 32.9943 57.2404 32.7115 56.9106 32.3598C56.5876 32.0012 56.3367 31.6012 56.1581 31.1598C55.9863 30.7115 55.9004 30.2494 55.9004 29.7736C55.9004 29.2839 55.9932 28.8184 56.1787 28.377C56.3642 27.9356 56.6219 27.5426 56.9518 27.1977C57.2885 26.846 57.6836 26.5701 58.1371 26.3701C58.5975 26.1701 59.0992 26.0701 59.642 26.0701C60.1986 26.0701 60.7037 26.177 61.1572 26.3908C61.6107 26.5977 61.999 26.8804 62.3219 27.2391C62.6449 27.5977 62.8923 28.0011 63.0641 28.4495C63.2427 28.8908 63.3321 29.346 63.3321 29.815C63.3321 30.2977 63.2393 30.7598 63.0538 31.2012C62.8751 31.6426 62.6174 32.0391 62.2807 32.3909C61.9509 32.7357 61.5592 33.0116 61.1057 33.2185C60.6521 33.4185 60.1505 33.5184 59.6008 33.5184ZM57.9413 29.7942C57.9413 30.0425 57.9756 30.2839 58.0443 30.5184C58.1131 30.746 58.2162 30.9529 58.3536 31.1391C58.491 31.3184 58.6628 31.4632 58.869 31.5736C59.082 31.677 59.3328 31.7288 59.6214 31.7288C59.91 31.7288 60.1608 31.6736 60.3738 31.5632C60.5868 31.4529 60.7586 31.3046 60.8892 31.1185C61.0266 30.9254 61.1263 30.715 61.1881 30.4874C61.2568 30.2529 61.2912 30.015 61.2912 29.7736C61.2912 29.5253 61.2568 29.2874 61.1881 29.0598C61.1194 28.8322 61.0163 28.6287 60.8789 28.4495C60.7415 28.2632 60.5663 28.1184 60.3532 28.0149C60.1402 27.9115 59.8928 27.8598 59.6111 27.8598C59.3225 27.8598 59.0717 27.915 58.8587 28.0253C58.6525 28.1356 58.4807 28.2839 58.3433 28.4701C58.2058 28.6494 58.1028 28.8563 58.0341 29.0908C57.9722 29.3184 57.9413 29.5529 57.9413 29.7942Z" fill="#F5BF5B"/>
    <path d="M63.4727 29.7219C63.4727 29.2736 63.5551 28.8357 63.72 28.4081C63.8918 27.9736 64.1392 27.5804 64.4622 27.2287C64.7851 26.877 65.1768 26.5977 65.6372 26.3908C66.1045 26.177 66.6302 26.0701 67.2142 26.0701C67.9151 26.0701 68.5267 26.2184 69.049 26.5149C69.5712 26.8046 69.9594 27.1908 70.2137 27.6735L68.6779 28.7702C68.5886 28.5288 68.458 28.3425 68.2862 28.2115C68.1213 28.0804 67.9392 27.9908 67.7399 27.9425C67.5475 27.8873 67.3585 27.8598 67.173 27.8598C66.8844 27.8598 66.6336 27.9184 66.4206 28.0356C66.2145 28.146 66.0426 28.2943 65.9052 28.4805C65.7746 28.6667 65.675 28.8736 65.6063 29.1011C65.5444 29.3287 65.5136 29.5563 65.5136 29.7839C65.5136 30.0391 65.5513 30.2839 65.6269 30.5184C65.7025 30.7529 65.8124 30.9632 65.9568 31.1495C66.101 31.3288 66.2763 31.4702 66.4825 31.5736C66.6955 31.677 66.9325 31.7288 67.1937 31.7288C67.3792 31.7288 67.5681 31.7012 67.7606 31.646C67.9529 31.584 68.1281 31.4874 68.2862 31.3564C68.4443 31.2253 68.5645 31.0495 68.647 30.8288L70.2859 31.8116C70.1415 32.1702 69.901 32.4771 69.5643 32.7322C69.2276 32.9874 68.8463 33.184 68.4202 33.3219C67.9942 33.4529 67.5716 33.5184 67.1524 33.5184C66.6095 33.5184 66.1113 33.4116 65.6578 33.1977C65.2112 32.9771 64.8229 32.6874 64.4931 32.3288C64.1702 31.9632 63.9193 31.5564 63.7407 31.1081C63.562 30.6529 63.4727 30.1908 63.4727 29.7219Z" fill="#F5BF5B"/>
    <path d="M70.6924 33.4564V26.1115H72.7021V28.9046L74.929 26.1115H77.1962L74.5371 29.4012L77.3817 33.4564H75.0733L73.2592 30.7563L72.7021 31.3356V33.4564H70.6924Z" fill="#F5BF5B"/>
    <path d="M34.4008 4.2699H24.0547L29.2278 13.2937H39.5738L34.4008 4.2699Z" fill="white"/>
    <path d="M29.2283 13.2937L24.0553 4.2699L18.9453 13.2937L24.0529 22.2499L24.0553 22.254L29.2283 13.2937Z" fill="#060612"/>
    <path d="M18.9453 13.2937H8.53613L13.7265 22.254H24.0552L24.0529 22.2499L18.9453 13.2937Z" fill="white"/>
    <path d="M13.726 22.254L8.53565 13.2937L3.37988 22.3175L8.53565 31.2778L13.726 22.254Z" fill="#060612"/>
    <path d="M24.0547 22.254L29.2325 31.2778H39.5738L34.4638 22.3175L24.0547 22.254Z" fill="white"/>
    <path d="M18.8193 31.3414L23.9923 40.3016L29.2332 31.2778L24.0554 22.254L18.8193 31.3414Z" fill="#060612"/>
    <path d="M13.7265 22.254L8.53613 31.2778L18.8191 31.3414L24.0552 22.254H13.7265Z" fill="#F5BF5B"/>
    <path d="M39.5738 13.2937H29.2278L24.0547 22.254L34.4638 22.3175L39.5738 13.2937Z" fill="#F5BF5B"/>
    <path d="M29.233 31.2778L23.9922 40.3016H34.0061L39.5744 31.2778H29.233Z" fill="#F5BF5B"/>
</svg>
