<svg viewBox="0 0 48 47" fill="none" xmlns="http://www.w3.org/2000/svg">
<path fill-rule="evenodd" clip-rule="evenodd" d="M24.0005 0C18.303 0.00295613 12.7923 2.02092 8.45374 5.69305C4.11521 9.36517 1.23181 14.452 0.319089 20.044C-0.593628 25.636 0.523853 31.3684 3.47174 36.2164C6.41963 41.0643 11.0057 44.7115 16.4099 46.5059C17.6021 46.7272 18.0512 45.9883 18.0512 45.36C18.0512 44.7317 18.0273 42.91 18.0194 40.9184C11.3428 42.3608 9.93197 38.101 9.93197 38.101C8.84305 35.3349 7.26927 34.6078 7.26927 34.6078C5.09143 33.1299 7.43223 33.1576 7.43223 33.1576C9.84455 33.3275 11.1123 35.6194 11.1123 35.6194C13.2504 39.2667 16.7278 38.2116 18.0949 37.5952C18.3095 36.0501 18.9335 34.999 19.621 34.4023C14.2877 33.8017 8.68408 31.7548 8.68408 22.6108C8.65102 20.2394 9.53605 17.9461 11.156 16.2054C10.9096 15.6047 10.087 13.1785 11.3905 9.88286C11.3905 9.88286 13.4054 9.24271 17.9916 12.3289C21.9253 11.2592 26.0757 11.2592 30.0095 12.3289C34.5917 9.24271 36.6026 9.88286 36.6026 9.88286C37.9101 13.1706 37.0875 15.5968 36.8411 16.2054C38.4662 17.9464 39.353 20.2437 39.317 22.6187C39.317 31.7824 33.7015 33.8017 28.3602 34.3905C29.2186 35.1334 29.9856 36.5836 29.9856 38.8122C29.9856 42.0051 29.9578 44.5736 29.9578 45.36C29.9578 45.9962 30.391 46.7391 31.6071 46.5059C37.0119 44.7113 41.5984 41.0634 44.5462 36.2147C47.4941 31.3659 48.611 25.6326 47.6972 20.0401C46.7835 14.4476 43.8986 9.36071 39.5587 5.68921C35.2187 2.01771 29.7067 0.00108239 24.0085 0H24.0005Z" fill="currentColor"/>
</svg>
