<svg width="94" height="37" viewBox="0 0 94 37" fill="none" xmlns="http://www.w3.org/2000/svg">
<path d="M76.1378 36.5C86.0027 36.5 93.9999 28.4411 93.9999 18.5C93.9999 8.55886 86.0027 0.5 76.1378 0.5C66.7785 0.5 59.1004 7.75385 58.3379 16.9869H81.9475V20.013H58.3379C59.1004 29.2461 66.7785 36.5 76.1378 36.5Z" fill="white"/>
<path d="M30.8333 0.5H20.5498L25.6916 9.51309H35.9751L30.8333 0.5Z" fill="white"/>
<path d="M25.6916 9.51309L20.5498 0.5L15.4708 9.51309L20.5475 18.4587L20.5498 18.4627L25.6916 9.51309Z" fill="#060612"/>
<path d="M15.4708 9.51309H5.1246L10.2835 18.4627H20.5498L20.5475 18.4587L15.4708 9.51309Z" fill="white"/>
<path d="M10.2835 18.4627L5.1246 9.51309L0 18.5262L5.1246 27.4758L10.2835 18.4627Z" fill="#060612"/>
<path d="M20.5498 18.4627L25.6962 27.4758H35.9751L30.896 18.5262L20.5498 18.4627Z" fill="white"/>
<path d="M15.3454 27.5393L20.4871 36.4889L25.6962 27.4758L20.5498 18.4627L15.3454 27.5393Z" fill="#060612"/>
<path d="M10.2835 18.4627L5.1246 27.4758L15.3454 27.5393L20.5498 18.4627H10.2835Z" fill="#F5BF5B"/>
<path d="M35.9751 9.51309H25.6916L20.5498 18.4627L30.896 18.5262L35.9751 9.51309Z" fill="#F5BF5B"/>
<path d="M25.6962 27.4758L20.4871 36.4889H30.4405L35.9751 27.4758H25.6962Z" fill="#F5BF5B"/>
<path d="M45.7503 20.1303C45.7041 20.1303 45.6513 20.1146 45.5919 20.0831C45.5325 20.0517 45.4797 20.014 45.4334 19.97C45.3938 19.9198 45.374 19.8727 45.374 19.8287C45.374 19.7784 45.3872 19.7344 45.4136 19.6967L46.7307 17.8118L45.4433 15.9834C45.4367 15.9708 45.4268 15.952 45.4136 15.9269C45.4004 15.9017 45.3938 15.8797 45.3938 15.8609C45.3938 15.8106 45.4136 15.7635 45.4532 15.7195C45.4995 15.6692 45.5523 15.6284 45.6117 15.597C45.6711 15.5656 45.7305 15.5499 45.79 15.5499C45.823 15.5499 45.856 15.5561 45.889 15.5687C45.9286 15.5813 45.9616 15.6064 45.988 15.6441L47.1566 17.3688L48.335 15.6441C48.3548 15.6127 48.3813 15.5907 48.4143 15.5781C48.4539 15.5593 48.4902 15.5499 48.5232 15.5499C48.5826 15.5499 48.642 15.5656 48.7014 15.597C48.7609 15.6221 48.8104 15.6598 48.85 15.7101C48.8962 15.7541 48.9193 15.8043 48.9193 15.8609C48.9193 15.8986 48.9028 15.9394 48.8698 15.9834L47.5725 17.8118L48.8995 19.6967C48.9127 19.7093 48.9226 19.7281 48.9292 19.7533C48.9358 19.7784 48.9391 19.8035 48.9391 19.8287C48.9391 19.8727 48.9193 19.9198 48.8797 19.97C48.8401 20.014 48.7906 20.0517 48.7312 20.0831C48.6717 20.1146 48.6123 20.1303 48.5529 20.1303C48.5199 20.1303 48.4836 20.1208 48.444 20.102C48.411 20.0894 48.3846 20.0674 48.3647 20.036L47.1566 18.2736L45.9583 20.036C45.9319 20.0674 45.8989 20.0894 45.8593 20.102C45.8263 20.1208 45.79 20.1303 45.7503 20.1303Z" fill="white"/>
</svg>
