<svg width="282" height="57" viewBox="0 0 282 57" fill="none" xmlns="http://www.w3.org/2000/svg">
<path fill-rule="evenodd" clip-rule="evenodd" d="M41.7081 28.5C41.7081 38.165 33.7006 46 23.8229 46C14.4515 46 6.76353 38.9476 6 29.971H29.6402V27.029H6C6.76353 18.0524 14.4515 11 23.8229 11C33.7006 11 41.7081 18.835 41.7081 28.5ZM108.016 42.8293C114.213 42.8293 118.277 39.5556 118.277 34.625C118.277 30.0495 115.219 27.8801 110.591 27.1306L106.486 26.46C103.347 25.9473 101.255 24.6061 101.255 21.6478C101.255 18.6501 103.589 16.3623 108.016 16.3623C112.321 16.3623 114.535 18.4923 114.776 21.5295H117.875C117.633 17.5062 114.495 13.9167 108.056 13.9167C101.697 13.9167 98.1962 17.4273 98.1962 21.7662C98.1962 26.3812 101.375 28.5112 105.722 29.2212L109.867 29.8523C113.327 30.4439 115.259 31.8245 115.259 34.7434C115.259 38.1751 112.402 40.3839 108.056 40.3839C103.549 40.3839 100.731 38.2539 100.49 34.625H97.4317C97.6731 39.3584 101.375 42.8293 108.016 42.8293ZM62.3281 42.2772H51.0605V14.5084H61.9257C66.7146 14.5084 70.0549 17.2695 70.0549 21.6873C70.0549 24.8823 68.2035 27.0123 65.2257 27.7223V27.8406C68.7669 28.5112 70.9402 30.8778 70.9402 34.5856C70.9402 39.3584 67.3585 42.2772 62.3281 42.2772ZM61.5233 26.6967C64.944 26.6967 67.0365 24.8823 67.0365 22.0423V21.6478C67.0365 18.8078 64.944 17.0328 61.5233 17.0328H54.0785V26.6967H61.5233ZM61.8855 39.7528C65.6281 39.7528 67.9218 37.7412 67.9218 34.6645V34.27C67.9218 31.075 65.5879 29.1423 61.8452 29.1423H54.0785V39.7528H61.8855ZM95.3129 42.2772H92.0936L89.6789 34.7434H78.4109L75.9965 42.2772H72.9379L82.2341 14.5084H85.8963L95.3129 42.2772ZM84.2059 17.5456H83.9644L79.2158 32.2584H88.9143L84.2059 17.5456ZM122.81 42.2772V14.5084H141V17.0723H125.829V26.6178H139.793V29.1423H125.829V39.7134H141V42.2772H122.81Z" fill="white"/>
<g clip-path="url(#clip0_1031_107)">
<path d="M231.179 26.6748C231.179 27.3948 230.982 27.9798 230.588 28.4297C230.205 28.8797 229.687 29.2116 229.034 29.4253C228.38 29.639 227.66 29.7459 226.871 29.7459H220.975V17.7654H227.936C228.499 17.7654 228.983 17.9172 229.389 18.221C229.805 18.5134 230.121 18.8959 230.335 19.3684C230.56 19.8409 230.673 20.3302 230.673 20.8364C230.673 21.3877 230.526 21.922 230.233 22.4395C229.952 22.9569 229.524 23.345 228.949 23.6038C229.636 23.8063 230.177 24.1606 230.571 24.6668C230.977 25.1731 231.179 25.8424 231.179 26.6748ZM227.834 25.9999C227.834 25.7974 227.795 25.623 227.716 25.4768C227.648 25.3193 227.553 25.1956 227.429 25.1056C227.305 25.0156 227.158 24.9706 226.989 24.9706H224.269V26.9786H226.871C227.051 26.9786 227.215 26.9392 227.361 26.8605C227.508 26.7817 227.62 26.6692 227.699 26.523C227.789 26.3767 227.834 26.2024 227.834 25.9999ZM224.269 20.5665V22.4057H226.516C226.663 22.4057 226.804 22.3832 226.939 22.3382C227.074 22.282 227.187 22.1864 227.277 22.0514C227.367 21.9164 227.412 21.7251 227.412 21.4777C227.412 21.2527 227.372 21.0783 227.294 20.9546C227.226 20.8196 227.13 20.7239 227.006 20.6677C226.894 20.6002 226.764 20.5665 226.618 20.5665H224.269Z" fill="white"/>
<path d="M237.539 29.8472C236.627 29.8472 235.799 29.6784 235.056 29.3409C234.312 28.9922 233.67 28.531 233.13 27.9573C232.6 27.3723 232.189 26.7198 231.896 25.9999C231.615 25.2687 231.474 24.515 231.474 23.7388C231.474 22.9401 231.626 22.1807 231.93 21.4608C232.234 20.7408 232.657 20.0996 233.197 19.5371C233.749 18.9634 234.397 18.5134 235.14 18.1872C235.895 17.861 236.717 17.6979 237.607 17.6979C238.519 17.6979 239.347 17.8722 240.091 18.221C240.834 18.5584 241.47 19.0197 242 19.6046C242.529 20.1896 242.935 20.8477 243.216 21.5789C243.509 22.2989 243.656 23.0413 243.656 23.8063C243.656 24.5937 243.504 25.3474 243.199 26.0674C242.907 26.7873 242.484 27.4342 241.932 28.0079C241.392 28.5704 240.75 29.0203 240.006 29.3578C239.263 29.684 238.441 29.8472 237.539 29.8472ZM234.819 23.7725C234.819 24.1775 234.876 24.5712 234.988 24.9537C235.101 25.3249 235.27 25.6624 235.495 25.9661C235.72 26.2586 236.002 26.4949 236.34 26.6748C236.689 26.8436 237.1 26.928 237.573 26.928C238.046 26.928 238.457 26.838 238.807 26.658C239.156 26.478 239.437 26.2361 239.651 25.9324C239.877 25.6174 240.04 25.2743 240.141 24.9031C240.254 24.5206 240.31 24.1325 240.31 23.7388C240.31 23.3338 240.254 22.9457 240.141 22.5745C240.029 22.2032 239.86 21.8714 239.634 21.5789C239.409 21.2752 239.122 21.0389 238.773 20.8702C238.424 20.7014 238.018 20.6171 237.556 20.6171C237.083 20.6171 236.672 20.7071 236.323 20.8871C235.985 21.067 235.703 21.3089 235.478 21.6126C235.253 21.9051 235.084 22.2426 234.971 22.6251C234.87 22.9963 234.819 23.3788 234.819 23.7725Z" fill="white"/>
<path d="M247.84 23.8569V29.7459H244.545V17.7654H247.113L251.928 23.8569V17.7654H255.223V29.7459H252.604L247.84 23.8569Z" fill="white"/>
<path d="M262.013 29.8472C261.056 29.8472 260.234 29.6897 259.547 29.3747C258.86 29.0597 258.296 28.6266 257.857 28.0754C257.429 27.5242 257.114 26.8942 256.911 26.1855C256.708 25.4655 256.607 24.7118 256.607 23.9244V17.7654H259.901V23.9244C259.901 24.3181 259.941 24.695 260.02 25.0549C260.099 25.4149 260.222 25.7355 260.391 26.0168C260.56 26.298 260.774 26.523 261.033 26.6917C261.304 26.8492 261.63 26.928 262.013 26.928C262.408 26.928 262.74 26.8492 263.01 26.6917C263.281 26.523 263.495 26.298 263.652 26.0168C263.821 25.7243 263.945 25.398 264.024 25.0381C264.103 24.6781 264.142 24.3069 264.142 23.9244V17.7654H267.437V23.9244C267.437 24.7568 267.324 25.533 267.099 26.253C266.885 26.973 266.558 27.6029 266.119 28.1429C265.68 28.6829 265.117 29.1047 264.429 29.4084C263.754 29.7009 262.948 29.8472 262.013 29.8472Z" fill="white"/>
<path d="M276.09 21.6801C276.09 21.6801 275.994 21.6239 275.803 21.5114C275.611 21.3989 275.358 21.2752 275.043 21.1402C274.727 20.9939 274.384 20.8646 274.012 20.7521C273.64 20.6396 273.274 20.5833 272.914 20.5833C272.632 20.5833 272.401 20.6283 272.221 20.7183C272.041 20.8083 271.951 20.9602 271.951 21.1739C271.951 21.3764 272.041 21.5395 272.221 21.6633C272.401 21.787 272.655 21.8995 272.981 22.0007C273.319 22.102 273.719 22.2257 274.181 22.372C274.924 22.597 275.566 22.8557 276.107 23.1482C276.648 23.4407 277.064 23.8175 277.357 24.2787C277.65 24.7287 277.797 25.3305 277.797 26.0843C277.797 26.8042 277.667 27.4117 277.408 27.9066C277.149 28.3904 276.8 28.7785 276.36 29.071C275.921 29.3634 275.431 29.5772 274.891 29.7122C274.35 29.8359 273.798 29.8978 273.235 29.8978C272.66 29.8978 272.058 29.8415 271.427 29.729C270.807 29.6053 270.205 29.4422 269.619 29.2397C269.033 29.026 268.498 28.7785 268.014 28.4972L269.433 25.6118C269.433 25.6118 269.546 25.6793 269.771 25.8143C269.996 25.9493 270.295 26.1011 270.667 26.2699C271.038 26.4386 271.449 26.5905 271.9 26.7255C272.362 26.8605 272.824 26.928 273.285 26.928C273.646 26.928 273.894 26.883 274.029 26.793C274.175 26.6917 274.249 26.5624 274.249 26.4049C274.249 26.1686 274.125 25.9886 273.877 25.8649C273.629 25.7299 273.302 25.6062 272.897 25.4937C272.503 25.3699 272.063 25.2293 271.579 25.0718C270.881 24.8356 270.306 24.5712 269.856 24.2787C269.405 23.975 269.073 23.6206 268.859 23.2157C268.645 22.7994 268.538 22.2989 268.538 21.7139C268.538 20.8252 268.746 20.0827 269.163 19.4865C269.58 18.8903 270.126 18.4403 270.802 18.1366C271.489 17.8216 272.227 17.6641 273.015 17.6641C273.601 17.6641 274.164 17.7372 274.705 17.8835C275.257 18.0185 275.769 18.1872 276.242 18.3897C276.727 18.5922 277.149 18.7834 277.509 18.9634L276.09 21.6801Z" fill="white"/>
<path d="M228.848 40.3435C228.848 40.9141 228.692 41.3777 228.38 41.7343C228.076 42.0909 227.665 42.3539 227.148 42.5233C226.63 42.6927 226.059 42.7773 225.434 42.7773H220.761V33.2827H226.277C226.724 33.2827 227.107 33.403 227.429 33.6437C227.759 33.8755 228.009 34.1787 228.179 34.5531C228.357 34.9275 228.446 35.3153 228.446 35.7165C228.446 36.1534 228.33 36.5768 228.098 36.9869C227.875 37.397 227.536 37.7046 227.081 37.9097C227.625 38.0701 228.054 38.351 228.366 38.7521C228.687 39.1533 228.848 39.6838 228.848 40.3435ZM226.197 39.8086C226.197 39.6481 226.166 39.5099 226.103 39.394C226.05 39.2692 225.974 39.1712 225.876 39.0998C225.777 39.0285 225.661 38.9929 225.528 38.9929H223.372V40.5842H225.434C225.577 40.5842 225.706 40.553 225.822 40.4906C225.938 40.4282 226.027 40.339 226.09 40.2231C226.161 40.1073 226.197 39.9691 226.197 39.8086ZM223.372 35.5026V36.9602H225.153C225.269 36.9602 225.38 36.9424 225.487 36.9067C225.594 36.8621 225.684 36.7863 225.755 36.6794C225.827 36.5724 225.862 36.4208 225.862 36.2247C225.862 36.0464 225.831 35.9082 225.769 35.8101C225.715 35.7032 225.639 35.6274 225.541 35.5828C225.452 35.5293 225.349 35.5026 225.233 35.5026H223.372Z" fill="white"/>
<path d="M229.604 42.7773V33.2827H232.215V40.504H236.526V42.7773H229.604Z" fill="white"/>
<path d="M241.202 42.8576C240.479 42.8576 239.822 42.7239 239.233 42.4564C238.644 42.18 238.135 41.8145 237.707 41.3598C237.287 40.8962 236.961 40.3792 236.729 39.8086C236.506 39.2291 236.395 38.6318 236.395 38.0166C236.395 37.3837 236.515 36.7819 236.756 36.2113C236.997 35.6407 237.332 35.1326 237.76 34.6868C238.198 34.2321 238.711 33.8755 239.3 33.617C239.898 33.3585 240.55 33.2292 241.255 33.2292C241.978 33.2292 242.634 33.3674 243.223 33.6437C243.813 33.9112 244.317 34.2767 244.736 34.7403C245.156 35.2039 245.477 35.7254 245.701 36.3049C245.933 36.8755 246.049 37.4639 246.049 38.0701C246.049 38.6942 245.928 39.2915 245.687 39.8621C245.455 40.4327 245.12 40.9453 244.683 41.4C244.254 41.8457 243.746 42.2023 243.156 42.4698C242.567 42.7283 241.916 42.8576 241.202 42.8576ZM239.046 38.0434C239.046 38.3643 239.09 38.6764 239.18 38.9795C239.269 39.2737 239.403 39.5411 239.581 39.7818C239.76 40.0136 239.983 40.2009 240.251 40.3435C240.528 40.4772 240.853 40.5441 241.228 40.5441C241.603 40.5441 241.929 40.4728 242.206 40.3301C242.483 40.1875 242.706 39.9958 242.875 39.7551C243.054 39.5055 243.183 39.2336 243.264 38.9394C243.353 38.6362 243.398 38.3287 243.398 38.0166C243.398 37.6957 243.353 37.3881 243.264 37.0939C243.174 36.7997 243.04 36.5367 242.862 36.3049C242.683 36.0642 242.456 35.877 242.179 35.7433C241.902 35.6095 241.581 35.5427 241.215 35.5427C240.84 35.5427 240.514 35.614 240.238 35.7566C239.97 35.8993 239.747 36.091 239.568 36.3317C239.39 36.5635 239.256 36.8309 239.166 37.134C239.086 37.4282 239.046 37.7314 239.046 38.0434Z" fill="white"/>
<path d="M246.231 37.9498C246.231 37.3703 246.339 36.8042 246.553 36.2514C246.776 35.6898 247.097 35.1816 247.517 34.7269C247.936 34.2723 248.445 33.9112 249.043 33.6437C249.65 33.3674 250.333 33.2292 251.092 33.2292C252.002 33.2292 252.797 33.4209 253.475 33.8042C254.154 34.1787 254.658 34.6779 254.988 35.302L252.993 36.7195C252.877 36.4074 252.708 36.1667 252.484 35.9974C252.27 35.828 252.034 35.7121 251.775 35.6497C251.525 35.5783 251.279 35.5427 251.038 35.5427C250.663 35.5427 250.338 35.6185 250.061 35.77C249.793 35.9127 249.57 36.1043 249.391 36.345C249.222 36.5858 249.092 36.8532 249.003 37.1474C248.923 37.4416 248.883 37.7358 248.883 38.03C248.883 38.3599 248.932 38.6764 249.03 38.9795C249.128 39.2826 249.271 39.5545 249.458 39.7952C249.646 40.027 249.873 40.2098 250.141 40.3435C250.418 40.4772 250.726 40.5441 251.065 40.5441C251.306 40.5441 251.552 40.5084 251.802 40.4371C252.052 40.3569 252.279 40.2321 252.484 40.0627C252.69 39.8933 252.846 39.6659 252.953 39.3807L255.082 40.6511C254.895 41.1147 254.582 41.5114 254.145 41.8413C253.707 42.1711 253.212 42.4252 252.659 42.6035C252.105 42.7729 251.556 42.8576 251.012 42.8576C250.306 42.8576 249.659 42.7194 249.07 42.443C248.49 42.1577 247.985 41.7833 247.557 41.3197C247.137 40.8472 246.812 40.3212 246.58 39.7417C246.347 39.1533 246.231 38.556 246.231 37.9498Z" fill="white"/>
<path d="M255.61 42.7773V33.2827H258.221V36.8933L261.113 33.2827H264.059L260.604 37.5352L264.3 42.7773H261.3L258.944 39.2871L258.221 40.0359V42.7773H255.61Z" fill="white"/>
<path d="M208.467 5.04846H195.027L201.747 16.7134H215.187L208.467 5.04846Z" fill="white"/>
<path d="M201.747 16.7134L195.027 5.04846L188.389 16.7134L195.024 28.291L195.027 28.2963L201.747 16.7134Z" fill="#060612"/>
<path d="M188.389 16.7134H174.867L181.609 28.2963H195.027L195.024 28.291L188.389 16.7134Z" fill="white"/>
<path d="M181.609 28.2963L174.867 16.7134L168.169 28.3784L174.867 39.9613L181.609 28.2963Z" fill="#060612"/>
<path d="M195.027 28.2963L201.753 39.9613H215.187L208.549 28.3784L195.027 28.2963Z" fill="white"/>
<path d="M188.225 40.0434L194.945 51.6263L201.753 39.9613L195.027 28.2963L188.225 40.0434Z" fill="#060612"/>
<path d="M181.609 28.2963L174.867 39.9613L188.225 40.0434L195.027 28.2963H181.609Z" fill="#F5BF5B"/>
<path d="M215.187 16.7134H201.747L195.027 28.2963L208.549 28.3784L215.187 16.7134Z" fill="#F5BF5B"/>
<path d="M201.753 39.9613L194.945 51.6263H207.953L215.187 39.9613H201.753Z" fill="#F5BF5B"/>
</g>
<path d="M152.596 34.3016C152.464 34.3016 152.313 34.2595 152.143 34.1752C151.972 34.0909 151.821 33.9898 151.689 33.8718C151.575 33.737 151.519 33.6106 151.519 33.4926C151.519 33.3578 151.556 33.2399 151.632 33.1387L155.405 28.0829L151.717 23.1787C151.698 23.145 151.67 23.0945 151.632 23.027C151.594 22.9596 151.575 22.9006 151.575 22.8501C151.575 22.7153 151.632 22.5889 151.745 22.4709C151.878 22.3361 152.029 22.2265 152.199 22.1423C152.37 22.058 152.54 22.0159 152.71 22.0159C152.805 22.0159 152.899 22.0327 152.994 22.0664C153.107 22.1001 153.202 22.1675 153.277 22.2687L156.625 26.8948L160 22.2687C160.057 22.1844 160.133 22.1254 160.227 22.0917C160.341 22.0411 160.445 22.0159 160.539 22.0159C160.709 22.0159 160.88 22.058 161.05 22.1423C161.22 22.2097 161.362 22.3108 161.475 22.4456C161.608 22.5636 161.674 22.6984 161.674 22.8501C161.674 22.9512 161.627 23.0607 161.532 23.1787L157.816 28.0829L161.617 33.1387C161.655 33.1724 161.683 33.223 161.702 33.2904C161.721 33.3578 161.731 33.4252 161.731 33.4926C161.731 33.6106 161.674 33.737 161.56 33.8718C161.447 33.9898 161.305 34.0909 161.135 34.1752C160.965 34.2595 160.794 34.3016 160.624 34.3016C160.53 34.3016 160.426 34.2763 160.312 34.2257C160.218 34.192 160.142 34.1331 160.085 34.0488L156.625 29.3216L153.192 34.0488C153.117 34.1331 153.022 34.192 152.909 34.2257C152.814 34.2763 152.71 34.3016 152.596 34.3016Z" fill="white"/>
<defs>
<clipPath id="clip0_1031_107">
<rect width="117.097" height="55.9683" fill="white" transform="translate(164.454 0.174622)"/>
</clipPath>
</defs>
</svg>
