<svg width="53" height="96" viewBox="0 0 53 96" fill="none" xmlns="http://www.w3.org/2000/svg">
<path d="M26.386 31.4096L52.5 15.7048L26.386 0L0.5 15.7048L26.386 31.4096Z" fill="white"/>
<path d="M26.386 31.4096V62.583L52.5 46.7601V15.7048L26.386 31.4096Z" fill="#F5BF5B"/>
<path d="M26.386 62.583V31.4096L0.5 15.7048V46.7601L14.5263 55.3338L26.386 62.583Z" fill="black"/>
<path d="M38.3501 55.3338L26.386 62.583L14.5263 55.3338C15.5355 56.4938 28.9783 62.583 20.1504 71.7241C14.5444 77.5291 14.3918 83.1292 14.5863 85.3895C14.8591 88.5583 17.4946 96.0842 26.4952 95.9993C35.4959 95.9144 38.087 88.5583 38.3597 85.3895C38.5607 83.0538 38.6215 77.2922 32.7957 71.7241C23.2312 62.583 37.3409 56.4938 38.3501 55.3338Z" fill="url(#paint0_linear_928_16346)"/>
<defs>
<linearGradient id="paint0_linear_928_16346" x1="26.5" y1="59.9852" x2="26.5" y2="96" gradientUnits="userSpaceOnUse">
<stop/>
<stop offset="1" stop-color="#F5BF5B"/>
</linearGradient>
</defs>
</svg>
