<svg width="25" height="25" viewBox="0 0 25 25" fill="none" xmlns="http://www.w3.org/2000/svg">
<g clip-path="url(#clip0_4_1085)">
<path d="M12.5013 15.8327C14.3423 15.8327 15.8346 14.3403 15.8346 12.4993C15.8346 10.6584 14.3423 9.16602 12.5013 9.16602C10.6604 9.16602 9.16797 10.6584 9.16797 12.4993C9.16797 14.3403 10.6604 15.8327 12.5013 15.8327Z" fill="#F4F7FF"/>
<path d="M9.3737 2.08398L7.46745 4.16732H4.16536C3.01953 4.16732 2.08203 5.10482 2.08203 6.25065V18.7507C2.08203 19.8965 3.01953 20.834 4.16536 20.834H20.832C21.9779 20.834 22.9154 19.8965 22.9154 18.7507V6.25065C22.9154 5.10482 21.9779 4.16732 20.832 4.16732H17.5299L15.6237 2.08398H9.3737ZM12.4987 17.709C9.6237 17.709 7.29037 15.3757 7.29037 12.5007C7.29037 9.62565 9.6237 7.29232 12.4987 7.29232C15.3737 7.29232 17.707 9.62565 17.707 12.5007C17.707 15.3757 15.3737 17.709 12.4987 17.709Z" fill="#F4F7FF"/>
</g>
<defs>
<clipPath id="clip0_4_1085">
<rect width="25" height="25" fill="white"/>
</clipPath>
</defs>
</svg>
