<svg width="25" height="24" viewBox="0 0 25 24" fill="none" xmlns="http://www.w3.org/2000/svg">
<path fill-rule="evenodd" clip-rule="evenodd" d="M5.73363 2.99901H2.7493C1.92018 2.99901 1.24805 3.67114 1.24805 4.50026V15.0003C1.24805 15.8294 1.92018 16.5015 2.7493 16.5015H5.6848C5.70749 16.5036 5.73047 16.5046 5.7537 16.5046C5.77693 16.5046 5.79992 16.5036 5.82261 16.5015H19.1812C19.2039 16.5036 19.2269 16.5046 19.2501 16.5046C19.2733 16.5046 19.2963 16.5036 19.319 16.5015H22.2493C23.0784 16.5015 23.7506 15.8294 23.7506 15.0003V12.0744C23.7529 12.0501 23.7541 12.0255 23.7541 12.0006C23.7541 11.9757 23.7529 11.9511 23.7506 11.9269V7.57665C23.7529 7.55238 23.7541 7.52777 23.7541 7.50288C23.7541 7.47799 23.7529 7.45339 23.7506 7.42912V4.50026C23.7506 3.67114 23.0784 2.99901 22.2493 2.99901H19.2645C19.2597 2.99892 19.2549 2.99887 19.2501 2.99887C19.2453 2.99887 19.2405 2.99892 19.2358 2.99901H5.77085C5.76466 2.99885 5.75846 2.99878 5.75224 2.99878C5.74602 2.99878 5.73981 2.99885 5.73363 2.99901ZM18.562 4.50152H6.44036C6.38405 4.83425 6.2904 5.16039 6.16065 5.47365C5.9343 6.0201 5.60253 6.51662 5.1843 6.93485C4.76606 7.35309 4.26954 7.68485 3.72309 7.9112C3.40971 8.04101 3.08343 8.13468 2.75056 8.19098V11.3122C3.08394 11.3685 3.41072 11.4622 3.72456 11.5922C4.27101 11.8186 4.76753 12.1503 5.18576 12.5686C5.604 12.9868 5.93576 13.4833 6.16211 14.0298C6.29149 14.3421 6.38498 14.6673 6.44133 14.999H18.5625C18.7179 14.0844 19.1533 13.2333 19.8181 12.5686C20.4827 11.904 21.3336 11.4685 22.248 11.313V8.19046C21.3336 8.035 20.4827 7.59955 19.8181 6.93494C19.1526 6.26951 18.7169 5.41729 18.562 4.50152ZM20.0969 4.50152C20.23 5.0159 20.4984 5.49041 20.8805 5.87251C21.2617 6.25375 21.735 6.52185 22.248 6.65517V4.50152H20.0969ZM22.248 12.8483C21.735 12.9817 21.2617 13.2497 20.8805 13.631C20.4991 14.0124 20.231 14.4858 20.0977 14.999H22.248V12.8483ZM4.9061 14.999C4.8713 14.865 4.82719 14.7332 4.77397 14.6048C4.62313 14.2406 4.40204 13.9097 4.12333 13.631C3.84461 13.3523 3.51373 13.1312 3.14957 12.9803C3.01956 12.9265 2.88622 12.882 2.75056 12.847V14.999H4.9061ZM2.75056 6.65605C2.88571 6.62111 3.01856 6.57672 3.14811 6.52306C3.51226 6.37222 3.84315 6.15113 4.12186 5.87242C4.40058 5.5937 4.62167 5.26282 4.77251 4.89866C4.82611 4.76925 4.87047 4.63653 4.90539 4.50152H2.75056V6.65605ZM12.5 6.75144C10.8436 6.75144 9.50073 8.09426 9.50073 9.75072C9.50073 11.4072 10.8436 12.75 12.5 12.75C14.1565 12.75 15.4993 11.4072 15.4993 9.75072C15.4993 8.09426 14.1565 6.75144 12.5 6.75144ZM7.99822 9.75072C7.99822 7.26445 10.0137 5.24893 12.5 5.24893C14.9863 5.24893 17.0018 7.26445 17.0018 9.75072C17.0018 12.237 14.9863 14.2525 12.5 14.2525C10.0137 14.2525 7.99822 12.237 7.99822 9.75072ZM2.7479 18.0003C2.7479 17.5854 3.08425 17.2491 3.49915 17.2491H21.4992C21.9141 17.2491 22.2504 17.5854 22.2504 18.0003C22.2504 18.4152 21.9141 18.7516 21.4992 18.7516H3.49915C3.08425 18.7516 2.7479 18.4152 2.7479 18.0003ZM4.24757 20.2505C4.24757 19.8356 4.58392 19.4992 4.99883 19.4992H19.9988C20.4137 19.4992 20.7501 19.8356 20.7501 20.2505C20.7501 20.6654 20.4137 21.0017 19.9988 21.0017H4.99883C4.58392 21.0017 4.24757 20.6654 4.24757 20.2505Z" fill="#ECEDEE"/>
</svg>
