<svg width="53" height="186" viewBox="0 0 53 186" fill="none" xmlns="http://www.w3.org/2000/svg">
<g filter="url(#filter0_d_928_28067)">
<path d="M41.1416 72.872V34.6453" stroke="#618EEF" stroke-linecap="round"/>
<path d="M14.0439 59.14V12.3772" stroke="#618EEF" stroke-linecap="round"/>
<path d="M32.2021 56.3572L32.2021 25.9243" stroke="#618EEF" stroke-linecap="round"/>
<path d="M25.5801 30.9329L25.5801 0.5" stroke="#618EEF" stroke-linecap="round"/>
</g>
<path d="M33.8838 94.9246C31.0579 89.688 26.681 84.5486 22.9935 80.7065C21.1525 78.7885 19.4893 77.1998 18.2868 76.091C17.6856 75.5367 17.1998 75.1026 16.8648 74.8075C16.7646 74.7192 16.6778 74.6433 16.6056 74.5804L16.6011 74.5828L16.5936 74.5866L16.5861 74.5905L16.5784 74.5944L16.5707 74.5983L16.5629 74.6023L16.5551 74.6063L16.5472 74.6104L16.5391 74.6145L16.5311 74.6187L16.5229 74.6228L16.5147 74.6271L16.5064 74.6313L16.498 74.6356L16.4895 74.64L16.481 74.6444L16.4724 74.6488L16.4637 74.6532L16.4549 74.6577L16.4461 74.6622L16.4372 74.6668L16.4282 74.6714L16.4192 74.676L16.4101 74.6807L16.4009 74.6854L16.3916 74.6902L16.3823 74.695L16.3729 74.6998L16.3635 74.7046L16.3539 74.7095L16.3443 74.7144L16.3347 74.7194L16.325 74.7244L16.3152 74.7294L16.3053 74.7345L16.2954 74.7396L16.2854 74.7447L16.2753 74.7499L16.2652 74.7551L16.255 74.7603L16.2447 74.7655L16.2344 74.7708L16.224 74.7762L16.2136 74.7815L16.2031 74.7869L16.1925 74.7923L16.1818 74.7978L16.1712 74.8033L16.1604 74.8088L16.1496 74.8144L16.1387 74.8199L16.1278 74.8255L16.1168 74.8312L16.1057 74.8369L16.0946 74.8426L16.0834 74.8483L16.0722 74.8541L16.0609 74.8599L16.0495 74.8657L16.0381 74.8715L16.0266 74.8774L16.0151 74.8833L16.0035 74.8893L15.9919 74.8952L15.9802 74.9012L15.9685 74.9072L15.9567 74.9133L15.9448 74.9194L15.9329 74.9255L15.921 74.9316L15.909 74.9378L15.8969 74.944L15.8848 74.9502L15.8726 74.9564L15.8604 74.9627L15.8481 74.969L15.8358 74.9753L15.8234 74.9817L15.811 74.988L15.7985 74.9944L15.786 75.0009L15.7734 75.0073L15.7608 75.0138L15.7481 75.0203L15.7354 75.0268L15.7227 75.0333L15.7099 75.0399L15.697 75.0465L15.6841 75.0531L15.6712 75.0598L15.6582 75.0664L15.6451 75.0731L15.632 75.0798L15.6189 75.0866L15.6057 75.0933L15.5925 75.1001L15.5793 75.1069L15.566 75.1137L15.5526 75.1206L15.5392 75.1274L15.5258 75.1343L15.5123 75.1412L15.4988 75.1482L15.4853 75.1551L15.4717 75.1621L15.4581 75.1691L15.4444 75.1761L15.4307 75.1831L15.4169 75.1902L15.4032 75.1972L15.3893 75.2043L15.3755 75.2114L15.3616 75.2186L15.3476 75.2257L15.3337 75.2329L15.3197 75.2401L15.3056 75.2473L15.2915 75.2545L15.2774 75.2617L15.2633 75.269L15.2491 75.2763L15.2349 75.2836L15.2206 75.2909L15.2063 75.2982L15.192 75.3055L15.1777 75.3129L15.1633 75.3203L15.1489 75.3277L15.1345 75.3351L15.12 75.3425L15.1055 75.3499L15.0909 75.3574L15.0764 75.3649L15.0618 75.3723L15.0472 75.3798L15.0325 75.3874L15.0178 75.3949L15.0031 75.4024L14.9884 75.41L14.9737 75.4176L14.9589 75.4251L14.9441 75.4327L14.9292 75.4404L14.9144 75.448L14.8995 75.4556L14.8846 75.4633L14.8696 75.4709L14.8547 75.4786L14.8397 75.4863L14.8247 75.494L14.8096 75.5017L14.7946 75.5094L14.7795 75.5171L14.7644 75.5249L14.7493 75.5326L14.7342 75.5404L14.719 75.5482L14.7038 75.556L14.6886 75.5638L14.6734 75.5716L14.6582 75.5794L14.6429 75.5872L14.6276 75.5951L14.6123 75.6029L14.597 75.6108L14.5817 75.6186L14.5664 75.6265L14.551 75.6344L14.5356 75.6423L14.5202 75.6501L14.5048 75.6581L14.4894 75.666L14.474 75.6739L14.4585 75.6818L14.4431 75.6897L14.4276 75.6977L14.4121 75.7056L14.3966 75.7136L14.3811 75.7215L14.3655 75.7295L14.35 75.7375L14.3345 75.7454L14.3189 75.7534L14.3033 75.7614L14.2877 75.7694L14.2722 75.7774L14.2566 75.7854L14.2409 75.7934L14.2253 75.8014L14.2097 75.8094L14.1941 75.8175L14.1784 75.8255L14.1628 75.8335L14.1471 75.8415L14.1315 75.8496L14.1158 75.8576L14.1001 75.8656L14.0845 75.8737L14.0688 75.8817L14.0531 75.8898L14.0374 75.8978L14.0217 75.9059L14.006 75.9139L13.9903 75.922L13.9746 75.93L13.9589 75.9381L13.9432 75.9461L13.9275 75.9542L13.9118 75.9623L13.8961 75.9703L13.8804 75.9784L13.8647 75.9864L13.849 75.9945L13.8333 76.0025L13.8176 76.0106L13.8019 76.0186L13.7862 76.0267L13.7705 76.0348L13.7548 76.0428L13.7391 76.0509L13.7234 76.0589L13.7077 76.0669L13.692 76.075L13.6764 76.083L13.6607 76.0911L13.645 76.0991L13.6294 76.1071L13.6137 76.1152L13.5981 76.1232L13.5824 76.1312L13.5668 76.1392L13.5512 76.1472L13.5356 76.1553L13.52 76.1633L13.5044 76.1713L13.4888 76.1793L13.4732 76.1872L13.4576 76.1952L13.4421 76.2032L13.4265 76.2112L13.411 76.2192L13.3955 76.2271L13.38 76.2351L13.3645 76.243L13.349 76.251L13.3335 76.2589L13.318 76.2668L13.3026 76.2748L13.2872 76.2827L13.2717 76.2906L13.2563 76.2985L13.2409 76.3064L13.2256 76.3143L13.2102 76.3221L13.1949 76.33L13.1796 76.3379L13.1643 76.3457L13.149 76.3536L13.1337 76.3614L13.1184 76.3692L13.1032 76.377L13.088 76.3848L13.0728 76.3926L13.0576 76.4004L13.0425 76.4082L13.0274 76.4159L13.0122 76.4237L12.9972 76.4314L12.9821 76.4392L12.967 76.4469L12.952 76.4546L12.937 76.4623L12.922 76.47L12.9071 76.4776L12.8922 76.4853L12.8772 76.4929L12.8624 76.5006L12.8475 76.5082L12.8327 76.5158L12.8179 76.5234L12.8031 76.531L12.7883 76.5385L12.7736 76.5461L12.7589 76.5536L12.7443 76.5612L12.7296 76.5687L12.715 76.5762L12.7004 76.5836L12.6859 76.5911L12.6713 76.5986L12.6569 76.606L12.6424 76.6134L12.628 76.6208L12.6136 76.6282L12.5992 76.6356L12.5849 76.6429L12.5705 76.6503L12.5563 76.6576L12.542 76.6649L12.5278 76.6722L12.5137 76.6795L12.4995 76.6867L12.4854 76.6939L12.4713 76.7012L12.4573 76.7084L12.4433 76.7155L12.4294 76.7227L12.4154 76.7298L12.4015 76.737L12.3877 76.7441L12.3739 76.7512L12.3601 76.7582L12.3464 76.7653L12.3327 76.7723L12.319 76.7793L12.3054 76.7863L12.2918 76.7932L12.2783 76.8002L12.2648 76.8071L12.2513 76.814L12.2379 76.8209L12.2245 76.8278L12.2112 76.8346L12.1979 76.8414L12.1847 76.8482L12.1715 76.855L12.1583 76.8617L12.1452 76.8685L12.1321 76.8752L12.1191 76.8818L12.1061 76.8885L12.0932 76.8951L12.0803 76.9018L12.0675 76.9083L12.0547 76.9149L12.0419 76.9214L12.0292 76.928L12.0166 76.9344L12.004 76.9409L11.9914 76.9474L11.9789 76.9538L11.9664 76.9602L11.954 76.9665L11.9417 76.9729L11.9294 76.9792L11.9171 76.9855L11.9049 76.9917L11.8927 76.998L11.8806 77.0042L11.8686 77.0104L11.8566 77.0165L11.8447 77.0226L11.8328 77.0287L11.8209 77.0348L11.8091 77.0408L11.7974 77.0469L11.7857 77.0529L11.7741 77.0588L11.7626 77.0647L11.7511 77.0706L11.7396 77.0765L11.7282 77.0824L11.7169 77.0882L11.7056 77.094L11.6944 77.0997L11.6832 77.1054L11.6721 77.1111L11.6611 77.1168L11.6501 77.1224L11.6392 77.128L11.6283 77.1336L11.6175 77.1391L11.6068 77.1447L11.5961 77.1501L11.5855 77.1556L11.5749 77.161L11.5644 77.1664L11.554 77.1717L11.5436 77.177L11.5333 77.1823L11.5231 77.1876L11.5129 77.1928L11.5028 77.198L11.4928 77.2031L11.4828 77.2083L11.4729 77.2133L11.463 77.2184L11.4533 77.2234L11.4435 77.2284L11.4339 77.2333L11.4243 77.2382L11.4148 77.2431L11.4054 77.248L11.396 77.2528L11.3867 77.2575L11.3775 77.2623L11.3683 77.267L11.3592 77.2716L11.3502 77.2763L11.3413 77.2809L11.3324 77.2854L11.3236 77.2899L11.3148 77.2944L11.3062 77.2989L11.2976 77.3033L11.2891 77.3076L11.2806 77.312L11.2723 77.3162L11.264 77.3205L11.2558 77.3247L11.2476 77.3289L11.2396 77.333L11.2316 77.3371L11.2237 77.3412L11.2158 77.3452L11.2081 77.3492L11.2004 77.3531L11.1928 77.357L11.1853 77.3609L11.1778 77.3647L11.1705 77.3685L11.1632 77.3722L11.156 77.3759L11.1488 77.3796L11.1418 77.3832L11.1348 77.3867L11.128 77.3903L11.1212 77.3938L11.1144 77.3972L11.1078 77.4006L11.1013 77.404L11.0948 77.4073L11.0884 77.4106L11.0821 77.4138C8.34866 78.816 7.02251 82.5451 7.3243 87.7352C7.62344 92.8795 9.52164 99.2639 12.9695 105.653C16.4173 112.042 20.739 117.183 24.9181 120.337C29.1344 123.519 33.0378 124.566 35.7712 123.164C36.8694 122.6 38.5864 121.651 40.0348 120.839C40.7577 120.434 41.4115 120.064 41.8847 119.795C42.0591 119.696 42.209 119.611 42.3287 119.543C42.3018 119.437 42.269 119.308 42.2306 119.158C42.1079 118.68 41.9277 117.988 41.6976 117.132C41.2375 115.419 40.5783 113.051 39.7823 110.43C38.1866 105.175 36.0537 98.9455 33.8838 94.9246Z" fill="#F1F1F1" stroke="#618EEF"/>
<path d="M10.8417 76.9802L16.6695 73.9907C16.6695 73.9907 26.0486 81.9416 32.1603 91.1239L9.88794 100.299C5.49841 89.4568 5.69628 79.6196 10.8417 76.9802Z" fill="#090A0C"/>
<path d="M40.0303 91.77C36.5825 85.381 32.2608 80.2398 28.0817 77.0858C23.8654 73.9037 19.962 72.8571 17.2286 74.2593C14.4951 75.6614 13.169 79.3906 13.4708 84.5807C13.7699 89.725 15.6681 96.1094 19.116 102.498C22.5638 108.887 26.8855 114.029 31.0646 117.183C35.2809 120.365 39.1843 121.411 41.9177 120.009C44.6512 118.607 45.9773 114.878 45.6755 109.688C45.3764 104.543 43.4782 98.159 40.0303 91.77Z" fill="url(#paint0_angular_928_28067)" stroke="#618EEF"/>
<path d="M12.0209 104.375L18.3941 101.652C18.3941 101.652 17.8882 100.737 17.6114 100.12C17.3348 99.5045 16.6693 98.099 16.6693 98.099L10.2888 100.729C10.2888 100.729 10.769 101.831 11.0912 102.544C11.4164 103.263 12.0209 104.375 12.0209 104.375Z" fill="#090A0C"/>
<path d="M13.0323 106.814L19.4551 104.107C19.4551 104.107 19.2414 103.764 19.1287 103.569C19.0143 103.371 18.8733 103.099 18.8733 103.099L12.4954 105.85C12.4954 105.85 12.6301 106.101 12.7373 106.301C12.8493 106.511 13.0323 106.814 13.0323 106.814Z" fill="#090A0C"/>
<defs>
<filter id="filter0_d_928_28067" x="13.5439" y="0" width="28.3977" height="73.6721" filterUnits="userSpaceOnUse" color-interpolation-filters="sRGB">
<feFlood flood-opacity="0" result="BackgroundImageFix"/>
<feColorMatrix in="SourceAlpha" type="matrix" values="0 0 0 0 0 0 0 0 0 0 0 0 0 0 0 0 0 0 127 0" result="hardAlpha"/>
<feOffset dx="0.3" dy="0.3"/>
<feComposite in2="hardAlpha" operator="out"/>
<feColorMatrix type="matrix" values="0 0 0 0 1 0 0 0 0 1 0 0 0 0 1 0 0 0 1 0"/>
<feBlend mode="normal" in2="BackgroundImageFix" result="effect1_dropShadow_928_28067"/>
<feBlend mode="normal" in="SourceGraphic" in2="effect1_dropShadow_928_28067" result="shape"/>
</filter>
<radialGradient id="paint0_angular_928_28067" cx="0" cy="0" r="1" gradientUnits="userSpaceOnUse" gradientTransform="translate(29.5732 97.1342) rotate(-118.354) scale(26.4912 12.2481)">
<stop stop-color="#5BABF5"/>
<stop offset="0.95"/>
</radialGradient>
</defs>
</svg>
