<svg width="26" height="27" viewBox="0 0 26 27" fill="none" xmlns="http://www.w3.org/2000/svg">
<path fill-rule="evenodd" clip-rule="evenodd" d="M5.6845 2.12409L5.68691 2.12408L16.658 2.12409C17.6266 2.12685 18.5547 2.51284 19.2396 3.19775C19.9245 3.88265 20.3105 4.81079 20.3133 5.77938L20.3133 5.79866L20.305 6.1865H20.6681C22.7162 6.1865 24.3765 7.8468 24.3765 9.89489V21.1683C24.3765 23.2164 22.7162 24.8767 20.6681 24.8767H9.39464C7.34655 24.8767 5.68625 23.2164 5.68625 21.1683V20.8143H5.28066L5.27834 20.8143C4.30974 20.8116 3.38161 20.4256 2.6967 19.7407C2.0118 19.0558 1.62581 18.1276 1.62305 17.159L1.62305 17.1567V6.18554C1.62623 5.10936 2.05515 4.07816 2.81614 3.31718C3.57712 2.5562 4.60832 2.12727 5.6845 2.12409ZM5.68625 19.1866V9.89489C5.68625 7.8468 7.34655 6.1865 9.39464 6.1865H18.6769L18.6855 5.77519C18.6817 5.23988 18.4673 4.72742 18.0886 4.34872C17.7081 3.96818 17.1925 3.75362 16.6544 3.75181H5.68819C5.04244 3.75401 4.42375 4.01151 3.96711 4.46815C3.51047 4.92479 3.25297 5.54348 3.25077 6.18923V17.1554C3.25258 17.6936 3.46714 18.2092 3.84768 18.5897C4.22822 18.9702 4.74383 19.1848 5.28197 19.1866H5.68625ZM19.4618 7.81422H9.39464C8.24552 7.81422 7.31397 8.74577 7.31397 9.89489V21.1683C7.31397 22.3175 8.24552 23.249 9.39464 23.249H20.6681C21.8172 23.249 22.7488 22.3175 22.7488 21.1683V9.89489C22.7488 8.74577 21.8172 7.81422 20.6681 7.81422H19.4869C19.4786 7.81434 19.4702 7.81434 19.4618 7.81422Z" fill="#1B6DDF"/>
</svg>
