<svg viewBox="0 0 128 128" fill="none" xmlns="http://www.w3.org/2000/svg">
    <path d="M64 121.6a1.28 1.28 0 0 1-.65-2.38l1.93-1.13 45.53-26.67V35.73a1.28 1.28 0 1 1 2.56 0v56.43c0 .46-.23.88-.63 1.11l-48.09 28.16c-.2.12-.42.17-.65.17Z" fill="white"/>
    <path d="M112.09 34.45a1.28 1.28 0 0 1 .65 2.38l-1.93 1.13-45.53 26.67v55.69a1.28 1.28 0 1 1-2.56 0V63.89c0-.46.23-.89.63-1.12l48.09-28.16c.2-.11.42-.17.65-.16Z" fill="white"/>
    <path d="m65.28 118.09 45.53-26.67V37.96L65.28 64.63v53.46Z" stroke-width="1.5" stroke="white" fill="white"/>
    <path d="M64.37 121.6a1.28 1.28 0 0 0 .65-2.38l-47.46-27.8v-55.7a1.28 1.28 0 1 0-2.56 0v56.44c0 .46.23.88.63 1.11l48.09 28.16c.2.12.42.17.65.17Z" fill="white"/>
    <path d="M16.28 34.45a1.28 1.28 0 0 0-.65 2.38l47.46 27.8v55.7a1.28 1.28 0 0 0 2.56 0V63.88c0-.46-.24-.89-.63-1.12L16.93 34.61c-.2-.11-.42-.17-.65-.16Z" fill="white"/>
    <path d="M64 65.11c-.23 0-.45-.05-.64-.18l-48.09-28.1a1.28 1.28 0 0 1 0-2.2L63.36 6.45c.4-.22.88-.22 1.28 0l48.09 28.16a1.28 1.28 0 0 1 0 2.22l-48.09 28.1c-.2.12-.41.18-.64.17ZM18.44 35.67 64 62.35l45.56-26.63L64 9.1 18.44 35.67Z" fill="white"/>
    <path d="M64 51.2c-.23 0-.45-.06-.64-.18L39.31 36.94a1.28 1.28 0 0 1 0-2.21l24.05-14.08c.4-.23.88-.23 1.28 0l24.05 14.08a1.28 1.28 0 0 1 0 2.21L64.64 51.02c-.2.12-.41.18-.64.18ZM42.5 35.84 64 48.46l21.5-12.62L64 23.32 42.5 35.84Z" fill="white"/>
    <path d="M64 51.2c-.7 0-1.28-.57-1.28-1.28V21.76a1.28 1.28 0 1 1 2.56 0v28.16A1.28 1.28 0 0 1 64 51.2Z" fill="white"/>
</svg>
