<svg width="49" height="48" viewBox="0 0 49 48" fill="none" xmlns="http://www.w3.org/2000/svg">
<path d="M24.5005 45.6001C24.331 45.6001 24.1741 45.5107 24.0877 45.3649C23.9525 45.1369 24.0277 44.8426 24.2557 44.7073L24.9806 44.2827L42.0541 34.2817V14.2344V13.3969C42.0541 13.1317 42.2689 12.9169 42.5341 12.9169C42.7992 12.9169 43.0141 13.1317 43.0141 13.3969V34.5601C43.0158 34.7313 42.9261 34.8904 42.7789 34.9777L24.7453 45.5377C24.6708 45.5799 24.5863 45.6015 24.5005 45.6001Z" fill="black"/>
<path d="M42.5341 12.9169C42.7036 12.9169 42.8605 13.0064 42.9469 13.1521C43.0821 13.3801 43.0069 13.6745 42.779 13.8098L42.0541 14.2344L24.9806 24.2354V44.2827V45.1202C24.9806 45.3853 24.7657 45.6001 24.5005 45.6001C24.2353 45.6001 24.0206 45.3853 24.0206 45.1202V23.957C24.0188 23.7857 24.1085 23.6267 24.2557 23.5393L42.2893 12.9793C42.3638 12.9372 42.4483 12.9155 42.5341 12.9169Z" fill="black"/>
<path d="M24.9806 44.2827L42.0541 34.2817V14.2344L24.9806 24.2354V44.2827Z" fill="black"/>
<path d="M24.6392 45.6001C24.8087 45.6001 24.9656 45.5108 25.052 45.365C25.1871 45.137 25.112 44.8426 24.884 44.7073L7.08558 34.2817V13.3969C7.08558 13.1318 6.87074 12.9169 6.60558 12.9169C6.34042 12.9169 6.12558 13.1318 6.12558 13.3969V34.5601C6.12386 34.7314 6.21355 34.8904 6.36074 34.9778L24.3943 45.5378C24.4689 45.58 24.5534 45.6015 24.6392 45.6001Z" fill="black"/>
<path d="M6.60558 12.9169C6.43605 12.9169 6.27911 13.0064 6.19272 13.1522C6.05756 13.3802 6.13272 13.6746 6.36069 13.8098L24.1591 24.2354V45.1202C24.1591 45.3854 24.374 45.6001 24.6392 45.6001C24.9043 45.6001 25.1191 45.3854 25.1191 45.1202V23.957C25.1208 23.7858 25.0311 23.6267 24.8839 23.5394L6.85033 12.9794C6.7758 12.9372 6.69136 12.9155 6.60558 12.9169Z" fill="black"/>
<path d="M24.5001 24.4176C24.4153 24.4191 24.3318 24.3959 24.2601 24.3504L6.22652 13.8144C6.07856 13.7286 5.9873 13.5703 5.9873 13.3992C5.9873 13.2281 6.07855 13.0699 6.22652 12.9841L24.2601 2.42408C24.4086 2.3383 24.5917 2.3383 24.7401 2.42408L42.7737 12.9841C42.9217 13.0699 43.0129 13.2281 43.0129 13.3992C43.0129 13.5703 42.9217 13.7286 42.7737 13.8144L24.7401 24.3504C24.6684 24.3959 24.585 24.4191 24.5001 24.4176ZM7.41692 13.3776L24.5001 23.3808L41.5833 13.3968L24.5001 3.41278L7.41692 13.3776Z" fill="black"/>
<path d="M24.5002 19.2C24.4154 19.2017 24.3319 19.1783 24.2602 19.1328L15.241 13.8528C15.093 13.7669 15.002 13.6087 15.002 13.4376C15.002 13.2664 15.093 13.1083 15.241 13.0223L24.2602 7.74232C24.4087 7.65669 24.5918 7.65669 24.7402 7.74232L33.7594 13.0223C33.9074 13.1083 33.9985 13.2664 33.9985 13.4376C33.9985 13.6087 33.9074 13.7669 33.7594 13.8528L24.7402 19.1328C24.6685 19.1783 24.5851 19.2017 24.5002 19.2ZM16.4362 13.44L24.5002 18.1728L32.5642 13.44L24.5002 8.74559L16.4362 13.44Z" fill="black"/>
<path d="M24.5005 19.2C24.2354 19.2 24.0205 18.9851 24.0205 18.72V8.15999C24.0205 7.89484 24.2354 7.67999 24.5005 7.67999C24.7657 7.67999 24.9805 7.89484 24.9805 8.15999V18.72C24.9805 18.8473 24.9299 18.9694 24.8399 19.0594C24.7499 19.1494 24.6279 19.2 24.5005 19.2Z" fill="black"/>
</svg>
