<svg width="1014" height="551" viewBox="0 0 1014 551" fill="none" xmlns="http://www.w3.org/2000/svg">
<path d="M-59.965 203.78C-111.474 235 -157.834 275.627 -197.175 325.21C-383.747 560.36 -336.307 910.06 -90.7922 1104.86C154.723 1299.65 505.74 1266.1 692.313 1030.95C731.653 981.364 760.366 926.735 779.367 869.722C830.876 838.502 877.236 797.875 916.577 748.292C955.917 698.709 984.63 644.08 1003.63 587.067C1055.14 555.847 1101.5 515.22 1140.84 465.637C1327.41 230.487 1279.97 -119.213 1034.46 -314.009C788.944 -508.805 437.852 -475.792 251.043 -240.345C211.703 -190.762 182.99 -136.133 163.989 -79.1207C112.48 -47.9008 66.12 -7.27391 26.7796 42.3095C-12.5609 91.8929 -41.2738 146.522 -59.965 203.78ZM676.833 1018.66C496.621 1245.8 157.523 1277.68 -79.3232 1089.76C-316.169 901.847 -362.216 564.38 -182.004 337.247C-149.024 295.68 -110.72 260.756 -68.7285 232.629C-124.351 440.08 -51.4349 675.009 133.398 821.658C318.23 968.308 563.585 985.902 752.956 884.57C735.113 931.857 709.813 977.098 676.833 1018.66ZM585.695 251.598C459.067 151.129 303.996 111.309 158.098 128.599C153.266 62.8374 160.576 -2.96721 180.398 -66.1016C365.859 -175.858 613.038 -163.107 797.871 -16.4572C982.703 130.193 1051.39 368.541 986.603 573.557C929.629 607.214 867.209 629.294 802.071 639.54C786.357 494.023 712.322 352.067 585.695 251.598ZM573.916 266.443C696.519 363.719 768.016 501.243 783.448 642.665C642.221 659.791 492.043 621.433 369.44 524.158C246.838 426.883 175.34 289.359 159.909 147.937C301.136 130.811 451.314 169.168 573.916 266.443ZM357.662 539.004C484.289 639.472 639.36 679.293 785.258 662.002C790.09 727.764 782.78 793.569 762.958 856.703C577.497 966.46 330.319 953.709 145.486 807.059C-39.3467 660.409 -108.036 422.06 -43.2464 217.045C13.7279 183.388 76.1471 161.308 141.285 151.062C157 296.578 231.034 438.535 357.662 539.004ZM901.097 736.01C868.117 777.577 829.813 812.501 787.821 840.628C803.49 781.455 809.212 720.196 804.501 659.369C864.807 650.126 923.47 630.873 977.22 601.915C959.377 649.202 934.077 694.443 901.097 736.01ZM266.524 -228.063C446.736 -455.197 785.834 -487.082 1022.68 -299.163C1259.53 -111.245 1305.57 226.221 1125.36 453.355C1092.38 494.922 1054.08 529.846 1012.08 557.973C1067.71 350.522 994.791 115.593 809.959 -31.0569C625.126 -177.707 379.771 -195.3 190.4 -93.9682C208.243 -141.255 233.544 -186.496 266.524 -228.063ZM138.856 131.233C78.55 140.475 19.8864 159.729 -33.8639 188.687C-16.0208 141.4 9.27964 96.1586 42.2597 54.5917C75.2397 13.0248 113.543 -21.899 155.535 -50.026C139.866 9.14604 134.145 70.4052 138.856 131.233Z" fill="url(#paint0_linear_928_29003)" fill-opacity="0.22"/>
<defs>
<linearGradient id="paint0_linear_928_29003" x1="916.577" y1="748.292" x2="26.7796" y2="42.3095" gradientUnits="userSpaceOnUse">
<stop stop-color="#618EEF"/>
<stop offset="0.355" stop-color="#0052FF"/>
<stop offset="0.885"/>
</linearGradient>
</defs>
</svg>
