<svg width="310" height="65" viewBox="0 0 310 65" fill="none" xmlns="http://www.w3.org/2000/svg">
<rect x="0.5" y="1.08496" width="309" height="63" rx="11.5" fill="#28282A"/>
<rect x="0.5" y="1.08496" width="309" height="63" rx="11.5" stroke="#F7F9FD"/>
<path d="M59.5303 20.1506L49.5366 27.573L51.3847 23.1939L59.5303 20.1506Z" fill="#E2761B" stroke="#E2761B" stroke-linecap="round" stroke-linejoin="round"/>
<path d="M36.4595 20.1506L46.3728 27.6433L44.6152 23.1939L36.4595 20.1506Z" fill="#E4761B" stroke="#E4761B" stroke-linecap="round" stroke-linejoin="round"/>
<path d="M55.9346 37.3558L53.2729 41.4337L58.9679 43.0005L60.605 37.4462L55.9346 37.3558Z" fill="#E4761B" stroke="#E4761B" stroke-linecap="round" stroke-linejoin="round"/>
<path d="M35.4048 37.4462L37.0319 43.0005L42.7268 41.4337L40.0652 37.3558L35.4048 37.4462Z" fill="#E4761B" stroke="#E4761B" stroke-linecap="round" stroke-linejoin="round"/>
<path d="M42.4053 30.4657L40.8184 32.8662L46.4731 33.1173L46.2722 27.0407L42.4053 30.4657Z" fill="#E4761B" stroke="#E4761B" stroke-linecap="round" stroke-linejoin="round"/>
<path d="M53.5843 30.4657L49.6672 26.9704L49.5366 33.1173L55.1813 32.8662L53.5843 30.4657Z" fill="#E4761B" stroke="#E4761B" stroke-linecap="round" stroke-linejoin="round"/>
<path d="M42.7271 41.4337L46.1219 39.7764L43.1891 37.4864L42.7271 41.4337Z" fill="#E4761B" stroke="#E4761B" stroke-linecap="round" stroke-linejoin="round"/>
<path d="M49.8682 39.7764L53.2731 41.4337L52.801 37.4864L49.8682 39.7764Z" fill="#E4761B" stroke="#E4761B" stroke-linecap="round" stroke-linejoin="round"/>
<path d="M53.2731 41.4337L49.8682 39.7764L50.1394 41.9961L50.1092 42.9302L53.2731 41.4337Z" fill="#D7C1B3" stroke="#D7C1B3" stroke-linecap="round" stroke-linejoin="round"/>
<path d="M42.7271 41.4337L45.8909 42.9302L45.8708 41.9961L46.1219 39.7764L42.7271 41.4337Z" fill="#D7C1B3" stroke="#D7C1B3" stroke-linecap="round" stroke-linejoin="round"/>
<path d="M45.9408 36.02L43.1084 35.1863L45.1071 34.2723L45.9408 36.02Z" fill="#233447" stroke="#233447" stroke-linecap="round" stroke-linejoin="round"/>
<path d="M50.0488 36.02L50.8825 34.2723L52.8913 35.1863L50.0488 36.02Z" fill="#233447" stroke="#233447" stroke-linecap="round" stroke-linejoin="round"/>
<path d="M42.7271 41.4337L43.2092 37.3558L40.0654 37.4462L42.7271 41.4337Z" fill="#CD6116" stroke="#CD6116" stroke-linecap="round" stroke-linejoin="round"/>
<path d="M52.791 37.3558L53.2731 41.4337L55.9348 37.4462L52.791 37.3558Z" fill="#CD6116" stroke="#CD6116" stroke-linecap="round" stroke-linejoin="round"/>
<path d="M55.1818 32.8662L49.5371 33.1173L50.0594 36.02L50.893 34.2723L52.9018 35.1863L55.1818 32.8662Z" fill="#CD6116" stroke="#CD6116" stroke-linecap="round" stroke-linejoin="round"/>
<path d="M43.1089 35.1863L45.1177 34.2723L45.9413 36.02L46.4736 33.1173L40.8188 32.8662L43.1089 35.1863Z" fill="#CD6116" stroke="#CD6116" stroke-linecap="round" stroke-linejoin="round"/>
<path d="M40.8184 32.8662L43.1887 37.4864L43.1084 35.1863L40.8184 32.8662Z" fill="#E4751F" stroke="#E4751F" stroke-linecap="round" stroke-linejoin="round"/>
<path d="M52.9012 35.1863L52.8008 37.4864L55.1812 32.8662L52.9012 35.1863Z" fill="#E4751F" stroke="#E4751F" stroke-linecap="round" stroke-linejoin="round"/>
<path d="M46.4732 33.1173L45.9409 36.02L46.6038 39.445L46.7545 34.9352L46.4732 33.1173Z" fill="#E4751F" stroke="#E4751F" stroke-linecap="round" stroke-linejoin="round"/>
<path d="M49.5363 33.1173L49.2651 34.9252L49.3857 39.445L50.0586 36.02L49.5363 33.1173Z" fill="#E4751F" stroke="#E4751F" stroke-linecap="round" stroke-linejoin="round"/>
<path d="M50.0592 36.02L49.3862 39.445L49.8683 39.7764L52.8012 37.4864L52.9016 35.1863L50.0592 36.02Z" fill="#F6851B" stroke="#F6851B" stroke-linecap="round" stroke-linejoin="round"/>
<path d="M43.1084 35.1863L43.1888 37.4864L46.1216 39.7764L46.6037 39.445L45.9408 36.02L43.1084 35.1863Z" fill="#F6851B" stroke="#F6851B" stroke-linecap="round" stroke-linejoin="round"/>
<path d="M50.1093 42.9302L50.1395 41.9961L49.8884 41.7752H46.1018L45.8708 41.9961L45.8909 42.9302L42.7271 41.4337L43.8319 42.3376L46.0717 43.8944H49.9185L52.1684 42.3376L53.2732 41.4337L50.1093 42.9302Z" fill="#C0AD9E" stroke="#C0AD9E" stroke-linecap="round" stroke-linejoin="round"/>
<path d="M49.8681 39.7764L49.386 39.445H46.6038L46.1217 39.7764L45.8706 41.9961L46.1016 41.7752H49.8882L50.1393 41.9961L49.8681 39.7764Z" fill="#161616" stroke="#161616" stroke-linecap="round" stroke-linejoin="round"/>
<path d="M59.9523 28.0551L60.806 23.9572L59.5304 20.1506L49.8682 27.3219L53.5844 30.4657L58.8374 32.0024L60.0025 30.6465L59.5003 30.2849L60.3038 29.5517L59.6811 29.0696L60.4846 28.4569L59.9523 28.0551Z" fill="#763D16" stroke="#763D16" stroke-linecap="round" stroke-linejoin="round"/>
<path d="M35.1938 23.9572L36.0476 28.0551L35.5052 28.4569L36.3087 29.0696L35.696 29.5517L36.4996 30.2849L35.9974 30.6465L37.1524 32.0024L42.4054 30.4657L46.1217 27.3219L36.4594 20.1506L35.1938 23.9572Z" fill="#763D16" stroke="#763D16" stroke-linecap="round" stroke-linejoin="round"/>
<path d="M58.8372 32.0024L53.5842 30.4657L55.1812 32.8662L52.8008 37.4864L55.9345 37.4462H60.6049L58.8372 32.0024Z" fill="#F6851B" stroke="#F6851B" stroke-linecap="round" stroke-linejoin="round"/>
<path d="M42.4054 30.4657L37.1524 32.0024L35.4048 37.4462H40.0652L43.1888 37.4864L40.8185 32.8662L42.4054 30.4657Z" fill="#F6851B" stroke="#F6851B" stroke-linecap="round" stroke-linejoin="round"/>
<path d="M49.5368 33.1173L49.8682 27.3219L51.3949 23.1939H44.6152L46.1218 27.3219L46.4734 33.1173L46.5939 34.9453L46.6039 39.445H49.3861L49.4062 34.9453L49.5368 33.1173Z" fill="#F6851B" stroke="#F6851B" stroke-linecap="round" stroke-linejoin="round"/>
<path d="M85.744 38.777C84.9867 38.777 84.304 38.6596 83.696 38.425C83.088 38.1796 82.5707 37.8223 82.144 37.353C81.7173 36.873 81.3867 36.281 81.152 35.577C80.9173 34.8623 80.8 34.0303 80.8 33.081C80.8 32.1423 80.9173 31.3103 81.152 30.585C81.3867 29.849 81.7173 29.2356 82.144 28.745C82.5707 28.2436 83.088 27.865 83.696 27.609C84.304 27.353 84.9867 27.225 85.744 27.225C86.7787 27.225 87.632 27.4383 88.304 27.865C88.976 28.281 89.5147 28.9423 89.92 29.849L87.824 30.937C87.6747 30.4676 87.44 30.0943 87.12 29.817C86.8107 29.529 86.352 29.385 85.744 29.385C85.0293 29.385 84.4533 29.6196 84.016 30.089C83.5893 30.5476 83.376 31.2196 83.376 32.105V33.897C83.376 34.7823 83.5893 35.4596 84.016 35.929C84.4533 36.3876 85.0293 36.617 85.744 36.617C86.3413 36.617 86.816 36.457 87.168 36.137C87.5307 35.8063 87.7973 35.4116 87.968 34.953L89.952 36.105C89.536 36.9583 88.9867 37.6196 88.304 38.089C87.632 38.5476 86.7787 38.777 85.744 38.777ZM94.9339 38.777C94.3152 38.777 93.7605 38.6756 93.2699 38.473C92.7899 38.2703 92.3792 37.977 92.0379 37.593C91.7072 37.209 91.4512 36.745 91.2699 36.201C91.0885 35.657 90.9979 35.049 90.9979 34.377C90.9979 33.705 91.0885 33.097 91.2699 32.553C91.4512 32.009 91.7072 31.5503 92.0379 31.177C92.3792 30.793 92.7899 30.4996 93.2699 30.297C93.7605 30.0943 94.3152 29.993 94.9339 29.993C95.5525 29.993 96.1019 30.0943 96.5819 30.297C97.0725 30.4996 97.4832 30.793 97.8139 31.177C98.1552 31.5503 98.4165 32.009 98.5979 32.553C98.7792 33.097 98.8699 33.705 98.8699 34.377C98.8699 35.049 98.7792 35.657 98.5979 36.201C98.4165 36.745 98.1552 37.209 97.8139 37.593C97.4832 37.977 97.0725 38.2703 96.5819 38.473C96.1019 38.6756 95.5525 38.777 94.9339 38.777ZM94.9339 36.905C95.4032 36.905 95.7659 36.761 96.0219 36.473C96.2779 36.185 96.4059 35.7743 96.4059 35.241V33.529C96.4059 32.9956 96.2779 32.585 96.0219 32.297C95.7659 32.009 95.4032 31.865 94.9339 31.865C94.4645 31.865 94.1019 32.009 93.8459 32.297C93.5899 32.585 93.4619 32.9956 93.4619 33.529V35.241C93.4619 35.7743 93.5899 36.185 93.8459 36.473C94.1019 36.761 94.4645 36.905 94.9339 36.905ZM100.557 38.585V30.185H102.925V31.609H103.021C103.17 31.1716 103.432 30.793 103.805 30.473C104.178 30.153 104.696 29.993 105.357 29.993C106.221 29.993 106.872 30.281 107.309 30.857C107.757 31.433 107.981 32.2543 107.981 33.321V38.585H105.613V33.513C105.613 32.969 105.528 32.569 105.357 32.313C105.186 32.0463 104.882 31.913 104.445 31.913C104.253 31.913 104.066 31.9396 103.885 31.993C103.704 32.0356 103.538 32.1103 103.389 32.217C103.25 32.3236 103.138 32.457 103.053 32.617C102.968 32.7663 102.925 32.9423 102.925 33.145V38.585H100.557ZM113.032 38.585C112.211 38.585 111.587 38.377 111.16 37.961C110.744 37.545 110.536 36.937 110.536 36.137V32.025H109.352V30.185H109.944C110.264 30.185 110.483 30.1103 110.6 29.961C110.718 29.801 110.776 29.577 110.776 29.289V27.913H112.904V30.185H114.568V32.025H112.904V36.745H114.44V38.585H113.032ZM117.397 29.289C116.917 29.289 116.565 29.1823 116.341 28.969C116.128 28.745 116.021 28.4623 116.021 28.121V27.769C116.021 27.4276 116.128 27.1503 116.341 26.937C116.565 26.713 116.917 26.601 117.397 26.601C117.877 26.601 118.224 26.713 118.437 26.937C118.661 27.1503 118.773 27.4276 118.773 27.769V28.121C118.773 28.4623 118.661 28.745 118.437 28.969C118.224 29.1823 117.877 29.289 117.397 29.289ZM116.213 30.185H118.581V38.585H116.213V30.185ZM120.792 38.585V30.185H123.16V31.609H123.256C123.405 31.1716 123.666 30.793 124.04 30.473C124.413 30.153 124.93 29.993 125.592 29.993C126.456 29.993 127.106 30.281 127.544 30.857C127.992 31.433 128.216 32.2543 128.216 33.321V38.585H125.848V33.513C125.848 32.969 125.762 32.569 125.592 32.313C125.421 32.0463 125.117 31.913 124.68 31.913C124.488 31.913 124.301 31.9396 124.12 31.993C123.938 32.0356 123.773 32.1103 123.624 32.217C123.485 32.3236 123.373 32.457 123.288 32.617C123.202 32.7663 123.16 32.9423 123.16 33.145V38.585H120.792ZM135.283 37.177H135.203C135.128 37.3903 135.027 37.593 134.899 37.785C134.781 37.977 134.627 38.1476 134.435 38.297C134.243 38.4463 134.013 38.5636 133.747 38.649C133.491 38.7343 133.192 38.777 132.851 38.777C131.987 38.777 131.331 38.4943 130.883 37.929C130.445 37.353 130.227 36.5316 130.227 35.465V30.185H132.595V35.257C132.595 35.769 132.685 36.1636 132.867 36.441C133.048 36.7183 133.357 36.857 133.795 36.857C133.976 36.857 134.157 36.8303 134.339 36.777C134.52 36.7236 134.68 36.649 134.819 36.553C134.957 36.4463 135.069 36.3183 135.155 36.169C135.24 36.0196 135.283 35.8436 135.283 35.641V30.185H137.651V38.585H135.283V37.177ZM143.358 38.777C142.718 38.777 142.147 38.6756 141.646 38.473C141.145 38.2596 140.718 37.9663 140.366 37.593C140.025 37.209 139.763 36.745 139.582 36.201C139.411 35.657 139.326 35.049 139.326 34.377C139.326 33.7156 139.411 33.1183 139.582 32.585C139.753 32.041 140.003 31.577 140.334 31.193C140.675 30.809 141.091 30.5156 141.582 30.313C142.073 30.0996 142.633 29.993 143.262 29.993C143.955 29.993 144.547 30.1103 145.038 30.345C145.539 30.5796 145.945 30.8943 146.254 31.289C146.574 31.6836 146.803 32.1423 146.942 32.665C147.091 33.177 147.166 33.7156 147.166 34.281V34.985H141.774V35.113C141.774 35.6676 141.923 36.1103 142.222 36.441C142.521 36.761 142.99 36.921 143.63 36.921C144.121 36.921 144.521 36.825 144.83 36.633C145.139 36.4303 145.427 36.1903 145.694 35.913L146.878 37.385C146.505 37.8223 146.014 38.1636 145.406 38.409C144.809 38.6543 144.126 38.777 143.358 38.777ZM143.31 31.737C142.83 31.737 142.451 31.897 142.174 32.217C141.907 32.5263 141.774 32.9423 141.774 33.465V33.593H144.718V33.449C144.718 32.937 144.601 32.5263 144.366 32.217C144.142 31.897 143.79 31.737 143.31 31.737ZM151.82 30.185H154.108L154.924 33.577L155.5 36.137H155.564L156.236 33.577L157.196 30.185H159.356L160.332 33.577L161.02 36.137H161.084L161.66 33.577L162.476 30.185H164.668L162.348 38.585H159.868L158.844 35.033L158.252 32.857H158.204L157.628 35.033L156.604 38.585H154.172L151.82 30.185ZM167.257 29.289C166.777 29.289 166.425 29.1823 166.201 28.969C165.987 28.745 165.881 28.4623 165.881 28.121V27.769C165.881 27.4276 165.987 27.1503 166.201 26.937C166.425 26.713 166.777 26.601 167.257 26.601C167.737 26.601 168.083 26.713 168.297 26.937C168.521 27.1503 168.633 27.4276 168.633 27.769V28.121C168.633 28.4623 168.521 28.745 168.297 28.969C168.083 29.1823 167.737 29.289 167.257 29.289ZM166.073 30.185H168.441V38.585H166.073V30.185ZM173.595 38.585C172.774 38.585 172.15 38.377 171.723 37.961C171.307 37.545 171.099 36.937 171.099 36.137V32.025H169.915V30.185H170.507C170.827 30.185 171.046 30.1103 171.163 29.961C171.28 29.801 171.339 29.577 171.339 29.289V27.913H173.467V30.185H175.131V32.025H173.467V36.745H175.003V38.585H173.595ZM176.776 26.745H179.144V31.609H179.24C179.389 31.1716 179.651 30.793 180.024 30.473C180.397 30.153 180.915 29.993 181.576 29.993C182.44 29.993 183.091 30.281 183.528 30.857C183.976 31.433 184.2 32.2543 184.2 33.321V38.585H181.832V33.513C181.832 32.969 181.747 32.569 181.576 32.313C181.405 32.0463 181.101 31.913 180.664 31.913C180.472 31.913 180.285 31.9396 180.104 31.993C179.923 32.0356 179.757 32.1103 179.608 32.217C179.469 32.3236 179.357 32.457 179.272 32.617C179.187 32.7663 179.144 32.9423 179.144 33.145V38.585H176.776V26.745ZM198.568 31.257H198.52L197.704 32.889L195.528 36.841L193.4 32.905L192.552 31.145H192.504V38.585H190.216V27.417H192.792L195.528 32.649H195.56L198.264 27.417H200.856V38.585H198.568V31.257ZM206.702 38.777C206.062 38.777 205.491 38.6756 204.99 38.473C204.488 38.2596 204.062 37.9663 203.71 37.593C203.368 37.209 203.107 36.745 202.926 36.201C202.755 35.657 202.67 35.049 202.67 34.377C202.67 33.7156 202.755 33.1183 202.926 32.585C203.096 32.041 203.347 31.577 203.678 31.193C204.019 30.809 204.435 30.5156 204.926 30.313C205.416 30.0996 205.976 29.993 206.606 29.993C207.299 29.993 207.891 30.1103 208.382 30.345C208.883 30.5796 209.288 30.8943 209.598 31.289C209.918 31.6836 210.147 32.1423 210.286 32.665C210.435 33.177 210.51 33.7156 210.51 34.281V34.985H205.118V35.113C205.118 35.6676 205.267 36.1103 205.566 36.441C205.864 36.761 206.334 36.921 206.974 36.921C207.464 36.921 207.864 36.825 208.174 36.633C208.483 36.4303 208.771 36.1903 209.038 35.913L210.222 37.385C209.848 37.8223 209.358 38.1636 208.75 38.409C208.152 38.6543 207.47 38.777 206.702 38.777ZM206.654 31.737C206.174 31.737 205.795 31.897 205.518 32.217C205.251 32.5263 205.118 32.9423 205.118 33.465V33.593H208.062V33.449C208.062 32.937 207.944 32.5263 207.71 32.217C207.486 31.897 207.134 31.737 206.654 31.737ZM215.126 38.585C214.305 38.585 213.681 38.377 213.254 37.961C212.838 37.545 212.63 36.937 212.63 36.137V32.025H211.446V30.185H212.038C212.358 30.185 212.577 30.1103 212.694 29.961C212.811 29.801 212.87 29.577 212.87 29.289V27.913H214.998V30.185H216.662V32.025H214.998V36.745H216.534V38.585H215.126ZM224.515 38.585C224.088 38.585 223.731 38.4516 223.443 38.185C223.166 37.9183 222.99 37.561 222.915 37.113H222.819C222.691 37.657 222.408 38.073 221.971 38.361C221.534 38.6383 220.995 38.777 220.355 38.777C219.512 38.777 218.867 38.553 218.419 38.105C217.971 37.657 217.747 37.065 217.747 36.329C217.747 35.4436 218.067 34.7876 218.707 34.361C219.358 33.9236 220.238 33.705 221.347 33.705H222.675V33.177C222.675 32.7716 222.568 32.4516 222.355 32.217C222.142 31.9716 221.784 31.849 221.283 31.849C220.814 31.849 220.44 31.9503 220.163 32.153C219.886 32.3556 219.656 32.585 219.475 32.841L218.067 31.593C218.408 31.0916 218.835 30.7023 219.347 30.425C219.87 30.137 220.574 29.993 221.459 29.993C222.654 29.993 223.55 30.2543 224.147 30.777C224.744 31.2996 225.043 32.0623 225.043 33.065V36.745H225.827V38.585H224.515ZM221.235 37.129C221.63 37.129 221.966 37.0436 222.243 36.873C222.531 36.7023 222.675 36.425 222.675 36.041V35.049H221.523C220.595 35.049 220.131 35.3636 220.131 35.993V36.233C220.131 36.5423 220.227 36.7716 220.419 36.921C220.611 37.0596 220.883 37.129 221.235 37.129ZM227.417 38.585V30.185H229.785V31.609H229.881C230.03 31.161 230.286 30.7823 230.649 30.473C231.011 30.153 231.507 29.993 232.137 29.993C232.713 29.993 233.203 30.137 233.609 30.425C234.014 30.713 234.307 31.1343 234.489 31.689H234.536C234.611 31.4543 234.723 31.2356 234.873 31.033C235.033 30.8196 235.225 30.6383 235.449 30.489C235.673 30.3396 235.923 30.2223 236.201 30.137C236.478 30.041 236.777 29.993 237.097 29.993C237.907 29.993 238.526 30.281 238.953 30.857C239.39 31.433 239.609 32.2543 239.609 33.321V38.585H237.241V33.513C237.241 32.4463 236.857 31.913 236.089 31.913C235.737 31.913 235.417 32.0143 235.128 32.217C234.841 32.4196 234.697 32.729 234.697 33.145V38.585H232.329V33.513C232.329 32.4463 231.945 31.913 231.177 31.913C231.006 31.913 230.835 31.9396 230.665 31.993C230.505 32.0356 230.355 32.1103 230.217 32.217C230.089 32.3236 229.982 32.457 229.897 32.617C229.822 32.7663 229.785 32.9423 229.785 33.145V38.585H227.417ZM247.921 38.585C247.495 38.585 247.137 38.4516 246.849 38.185C246.572 37.9183 246.396 37.561 246.321 37.113H246.225C246.097 37.657 245.815 38.073 245.377 38.361C244.94 38.6383 244.401 38.777 243.761 38.777C242.919 38.777 242.273 38.553 241.825 38.105C241.377 37.657 241.153 37.065 241.153 36.329C241.153 35.4436 241.473 34.7876 242.113 34.361C242.764 33.9236 243.644 33.705 244.753 33.705H246.081V33.177C246.081 32.7716 245.975 32.4516 245.761 32.217C245.548 31.9716 245.191 31.849 244.689 31.849C244.22 31.849 243.847 31.9503 243.569 32.153C243.292 32.3556 243.063 32.585 242.881 32.841L241.473 31.593C241.815 31.0916 242.241 30.7023 242.753 30.425C243.276 30.137 243.98 29.993 244.865 29.993C246.06 29.993 246.956 30.2543 247.553 30.777C248.151 31.2996 248.449 32.0623 248.449 33.065V36.745H249.233V38.585H247.921ZM244.641 37.129C245.036 37.129 245.372 37.0436 245.649 36.873C245.937 36.7023 246.081 36.425 246.081 36.041V35.049H244.929C244.001 35.049 243.537 35.3636 243.537 35.993V36.233C243.537 36.5423 243.633 36.7716 243.825 36.921C244.017 37.0596 244.289 37.129 244.641 37.129ZM253.671 38.777C252.86 38.777 252.177 38.649 251.623 38.393C251.068 38.1263 250.572 37.753 250.135 37.273L251.527 35.865C251.825 36.1956 252.156 36.457 252.519 36.649C252.881 36.841 253.292 36.937 253.751 36.937C254.22 36.937 254.545 36.8676 254.727 36.729C254.908 36.5796 254.999 36.3823 254.999 36.137C254.999 35.7423 254.716 35.5076 254.151 35.433L253.239 35.321C251.351 35.0863 250.407 34.2223 250.407 32.729C250.407 32.3236 250.481 31.9556 250.631 31.625C250.791 31.2836 251.009 30.9956 251.287 30.761C251.575 30.5156 251.916 30.329 252.311 30.201C252.716 30.0623 253.169 29.993 253.671 29.993C254.108 29.993 254.492 30.025 254.823 30.089C255.164 30.1423 255.463 30.2276 255.719 30.345C255.985 30.4516 256.225 30.5903 256.439 30.761C256.663 30.921 256.881 31.1023 257.095 31.305L255.735 32.697C255.468 32.4303 255.164 32.2223 254.823 32.073C254.492 31.913 254.151 31.833 253.799 31.833C253.393 31.833 253.105 31.897 252.935 32.025C252.764 32.153 252.679 32.3236 252.679 32.537C252.679 32.761 252.737 32.937 252.855 33.065C252.983 33.1823 253.217 33.2676 253.559 33.321L254.503 33.449C256.348 33.6943 257.271 34.537 257.271 35.977C257.271 36.3823 257.185 36.7556 257.015 37.097C256.844 37.4383 256.599 37.737 256.279 37.993C255.969 38.2383 255.591 38.4303 255.143 38.569C254.705 38.7076 254.215 38.777 253.671 38.777ZM258.885 26.745H261.253V33.737H261.349L262.389 32.185L264.069 30.185H266.693L263.893 33.401L267.013 38.585H264.197L262.309 35.033L261.253 36.217V38.585H258.885V26.745Z" fill="white"/>
</svg>
