<svg width="22" height="23" viewBox="0 0 22 23" fill="none" xmlns="http://www.w3.org/2000/svg">
<path d="M21.6377 20.8144L16.8065 15.7616C18.255 13.7882 18.9313 11.3126 18.6982 8.83714C18.465 6.36163 17.3398 4.07153 15.5509 2.43139C13.762 0.791244 11.4433 -0.0761183 9.06509 0.0052476C6.68693 0.0866135 4.42741 1.11061 2.74489 2.86953C1.06238 4.62844 0.0828515 6.99055 0.00501967 9.4767C-0.0728121 11.9629 0.756877 14.3869 2.32578 16.257C3.89469 18.1272 6.08532 19.3034 8.45331 19.5472C10.8213 19.7909 13.1893 19.0839 15.077 17.5696L19.9124 22.6256C20.0259 22.7443 20.1607 22.8384 20.3091 22.9027C20.4575 22.9669 20.6165 23 20.7771 23C20.9377 23 21.0967 22.9669 21.2451 22.9027C21.3934 22.8384 21.5283 22.7443 21.6418 22.6256C21.7554 22.5068 21.8455 22.3659 21.9069 22.2108C21.9684 22.0557 22 21.8894 22 21.7216C22 21.5537 21.9684 21.3874 21.9069 21.2323C21.8455 21.0772 21.7554 20.9363 21.6418 20.8176L21.6377 20.8144ZM2.46211 9.80586C2.46211 8.37551 2.86784 6.97729 3.62798 5.788C4.38812 4.59872 5.46854 3.67178 6.73261 3.12441C7.99668 2.57704 9.38763 2.43382 10.7296 2.71287C12.0715 2.99192 13.3041 3.68069 14.2716 4.6921C15.2391 5.70351 15.8979 6.99212 16.1649 8.39498C16.4318 9.79784 16.2948 11.2519 15.7712 12.5734C15.2476 13.8949 14.3609 15.0243 13.2233 15.819C12.0857 16.6137 10.7482 17.0378 9.37995 17.0378C7.54581 17.0358 5.78732 16.2733 4.49038 14.9174C3.19345 13.5616 2.464 11.7233 2.46211 9.80586Z" fill="#1B6DDF"/>
</svg>
