<svg width="23" height="23" viewBox="0 0 23 23" fill="none" xmlns="http://www.w3.org/2000/svg">
<path d="M7.47903 1.67471C7.17927 1.6285 7.16664 1.62307 7.3077 1.60152C7.57801 1.5602 8.21629 1.61652 8.65615 1.72047C9.68298 1.96306 10.6174 2.58453 11.6147 3.68825L11.8797 3.98146L12.2588 3.92089C13.8556 3.66584 15.4802 3.86854 16.839 4.49242C17.2128 4.66405 17.8022 5.00571 17.8758 5.09351C17.8992 5.12148 17.9424 5.3016 17.9715 5.4938C18.0725 6.15872 18.0219 6.6684 17.8173 7.04907C17.7059 7.25623 17.6998 7.32188 17.7746 7.49917C17.8344 7.64063 18.001 7.74534 18.1659 7.74512C18.5036 7.74467 18.867 7.20214 19.0354 6.44727L19.1023 6.14743L19.2348 6.29662C19.9617 7.1151 20.5326 8.23132 20.6307 9.02582L20.6562 9.23301L20.534 9.04468C20.3238 8.72062 20.1125 8.50002 19.8419 8.32209C19.3542 8.00138 18.8387 7.89223 17.473 7.8207C16.2397 7.75611 15.5416 7.6514 14.8494 7.42707C13.6718 7.04546 13.0781 6.53721 11.6792 4.71305C11.0579 3.90282 10.6738 3.45454 10.2919 3.09353C9.42381 2.27323 8.57086 1.84303 7.47903 1.67471Z" fill="#CBCFD2"/>
<path d="M18.1553 3.48497C18.1863 2.94204 18.2605 2.58393 18.4094 2.25689C18.4683 2.12743 18.5235 2.02148 18.5321 2.02148C18.5406 2.02148 18.515 2.11704 18.4751 2.2338C18.3669 2.5512 18.3491 2.98532 18.4237 3.4904C18.5184 4.13126 18.5722 4.22372 19.2537 4.91599C19.5734 5.24069 19.9451 5.65022 20.0799 5.82604L20.325 6.14573L20.0799 5.91726C19.7802 5.63786 19.091 5.09297 18.9387 5.01508C18.8366 4.96285 18.8214 4.96375 18.7585 5.02605C18.7005 5.08345 18.6882 5.16969 18.6801 5.57746C18.6676 6.21296 18.5805 6.62087 18.3702 7.02873C18.2564 7.24934 18.2384 7.20226 18.3414 6.95325C18.4183 6.76735 18.4261 6.68561 18.4255 6.0704C18.4244 4.8343 18.2767 4.53712 17.4108 4.02805C17.1914 3.89909 16.83 3.7131 16.6076 3.61472C16.3852 3.51634 16.2086 3.43066 16.215 3.42426C16.2396 3.4 17.084 3.64497 17.4238 3.77491C17.9294 3.9682 18.0128 3.99325 18.0743 3.96993C18.1154 3.95431 18.1354 3.83518 18.1553 3.48497Z" fill="#CBCFD2"/>
<path d="M8.06102 5.59918C7.45251 4.76654 7.07602 3.4899 7.15753 2.53556L7.18274 2.24023L7.32125 2.26536C7.58135 2.31251 8.02985 2.47843 8.23985 2.60521C8.81615 2.95307 9.06569 3.41107 9.31943 4.58714C9.39386 4.93162 9.49138 5.32145 9.53628 5.45342C9.6085 5.66585 9.88156 6.16204 10.1036 6.4843C10.2635 6.71638 10.1573 6.82636 9.80382 6.79465C9.26395 6.74621 8.53275 6.24463 8.06102 5.59918Z" fill="#CBCFD2"/>
<path d="M17.4176 11.797C14.5738 10.659 13.5723 9.67121 13.5723 8.00454C13.5723 7.75927 13.5807 7.55859 13.5911 7.55859C13.6014 7.55859 13.7115 7.63953 13.8356 7.73848C14.4122 8.19817 15.058 8.39452 16.8456 8.65372C17.8976 8.80626 18.4896 8.92949 19.0356 9.10945C20.7713 9.68161 21.8452 10.8426 22.1012 12.424C22.1757 12.8836 22.132 13.7452 22.0114 14.1995C21.9161 14.5582 21.6255 15.2048 21.5484 15.2295C21.527 15.2364 21.5061 15.155 21.5005 15.0442C21.4714 14.4503 21.1694 13.8723 20.6624 13.4392C20.0859 12.9469 19.3114 12.5548 17.4176 11.797Z" fill="#CBCFD2"/>
<path d="M15.4205 12.27C15.3849 12.0592 15.3231 11.7901 15.2832 11.6719L15.2107 11.457L15.3454 11.6074C15.5319 11.8154 15.6793 12.0816 15.8043 12.4363C15.8996 12.707 15.9102 12.7874 15.9096 13.2272C15.9089 13.659 15.8969 13.7495 15.8089 13.9932C15.6701 14.3773 15.4978 14.6497 15.2087 14.9421C14.6893 15.4675 14.0214 15.7584 13.0576 15.8791C12.8901 15.9001 12.4018 15.9354 11.9726 15.9576C10.8908 16.0135 10.1788 16.129 9.53901 16.3523C9.4471 16.3844 9.36494 16.4039 9.35657 16.3956C9.33071 16.37 9.76625 16.112 10.1261 15.9397C10.6334 15.6969 11.1384 15.5643 12.2698 15.377C12.8288 15.2845 13.406 15.1723 13.5526 15.1275C14.9368 14.7057 15.6482 13.6172 15.4205 12.27Z" fill="#CBCFD2"/>
<path d="M16.7245 14.57C16.3467 13.7628 16.26 12.9834 16.4669 12.2565C16.4891 12.1788 16.5247 12.1152 16.5461 12.1152C16.5675 12.1152 16.6567 12.1632 16.7442 12.2217C16.9183 12.3382 17.2675 12.5344 18.1978 13.0385C19.3587 13.6676 20.0206 14.1546 20.4707 14.7113C20.8649 15.1986 21.1088 15.7537 21.2262 16.4306C21.2927 16.8141 21.2537 17.7367 21.1548 18.1227C20.8427 19.3401 20.1172 20.2963 19.0826 20.8543C18.931 20.9361 18.7949 21.0032 18.7802 21.0035C18.7655 21.0038 18.8207 20.8643 18.9029 20.6933C19.251 19.9702 19.2906 19.2667 19.0275 18.4838C18.8663 18.0044 18.5378 17.4194 17.8745 16.4308C17.1033 15.2813 16.9142 14.9754 16.7245 14.57Z" fill="#CBCFD2"/>
<path d="M6.04074 18.9258C7.09603 18.0402 8.40907 17.4111 9.60515 17.218C10.1205 17.1347 10.9793 17.1677 11.4566 17.2892C12.2217 17.4837 12.9061 17.9197 13.262 18.4389C13.6099 18.9465 13.7591 19.3888 13.9145 20.3729C13.9758 20.7611 14.0425 21.151 14.0626 21.2392C14.1794 21.7492 14.4065 22.1569 14.6878 22.3616C15.1347 22.6867 15.9043 22.707 16.6614 22.4135C16.7899 22.3636 16.9015 22.3292 16.9093 22.3369C16.9367 22.3641 16.5555 22.6177 16.2866 22.7512C15.9247 22.9309 15.637 23.0004 15.2546 23.0004C14.5612 23.0004 13.9855 22.6498 13.5052 21.9349C13.4107 21.7942 13.1982 21.3729 13.0331 20.9986C12.5259 19.8488 12.2755 19.4986 11.6866 19.1153C11.1742 18.7818 10.5132 18.722 10.016 18.9643C9.363 19.2826 9.18074 20.1122 9.64848 20.6378C9.83442 20.8467 10.1811 21.0269 10.4646 21.062C10.9949 21.1276 11.4507 20.7265 11.4507 20.1943C11.4507 19.8488 11.317 19.6516 10.9807 19.5007C10.5212 19.2946 10.0273 19.5355 10.0297 19.9645C10.0307 20.1475 10.1109 20.2623 10.2953 20.3453C10.4138 20.3986 10.4165 20.4027 10.32 20.3828C9.89836 20.2959 9.79964 19.7908 10.1386 19.4554C10.5455 19.0528 11.387 19.2305 11.676 19.78C11.7975 20.0109 11.8115 20.4705 11.7056 20.7481C11.4688 21.3694 10.7781 21.6961 10.0774 21.5183C9.60036 21.3972 9.40615 21.2661 8.83095 20.6773C7.83151 19.6541 7.44351 19.4558 6.00267 19.2322L5.72656 19.1895L6.04074 18.9258Z" fill="#CBCFD2"/>
<path fill-rule="evenodd" clip-rule="evenodd" d="M1.35287 0.612051C4.69053 4.63829 6.98933 6.29945 7.2448 6.65041C7.45572 6.9402 7.37634 7.20072 7.01499 7.4049C6.81405 7.51842 6.40093 7.63345 6.19408 7.63345C5.96013 7.63345 5.8798 7.54374 5.8798 7.54374C5.74415 7.41588 5.66775 7.43824 4.97114 6.20926C4.00403 4.71775 3.19468 3.48047 3.1726 3.45976C3.12155 3.41185 3.12242 3.41347 4.87253 6.52579C5.1553 7.17447 4.92878 7.41259 4.92878 7.50497C4.92878 7.69292 4.87719 7.79172 4.64392 8.05032C4.25505 8.4815 4.08121 8.966 3.95572 9.96864C3.81505 11.0926 3.41948 11.8866 2.32322 13.2455C1.68152 14.0408 1.57651 14.1867 1.41459 14.5073C1.21063 14.911 1.15456 15.1371 1.13182 15.6469C1.1078 16.186 1.15459 16.5342 1.32028 17.0496C1.46534 17.5008 1.61675 17.7987 2.00384 18.3946C2.33788 18.9088 2.53023 19.2909 2.53023 19.4404C2.53023 19.5593 2.55307 19.5595 3.0707 19.4434C4.30946 19.1653 5.31533 18.6763 5.88104 18.0771C6.23115 17.7061 6.31336 17.5013 6.31603 16.9931C6.31777 16.6606 6.30601 16.5909 6.21559 16.3997C6.06839 16.0884 5.80045 15.8296 5.20987 15.4283C4.43605 14.9025 4.10554 14.4793 4.01425 13.8972C3.93936 13.4195 4.02623 13.0825 4.45432 12.1909C4.89741 11.2678 5.00721 10.8745 5.08149 9.94408C5.12946 9.34303 5.19589 9.10594 5.36966 8.91568C5.55088 8.71724 5.71402 8.65005 6.16251 8.58914C6.8937 8.48987 7.35928 8.30184 7.74199 7.95134C8.07397 7.64727 8.2129 7.35428 8.23422 6.91323L8.25041 6.57892L8.06488 6.36394C7.39301 5.58533 0.902939 0 0.861584 0C0.852752 0 1.07384 0.27544 1.35287 0.612051ZM2.90737 16.2569C3.05927 15.9894 2.97856 15.6457 2.72447 15.4778C2.48438 15.3191 2.11142 15.3938 2.11142 15.6006C2.11142 15.6638 2.14653 15.7097 2.22564 15.7501C2.35886 15.8182 2.36853 15.8949 2.26371 16.0514C2.15757 16.21 2.16614 16.3494 2.28789 16.4442C2.48411 16.5969 2.7619 16.5129 2.90737 16.2569Z" fill="#CBCFD2"/>
<path fill-rule="evenodd" clip-rule="evenodd" d="M8.71221 8.7643C8.36895 8.8691 8.03528 9.23067 7.93199 9.60981C7.86898 9.8411 7.90474 10.2468 7.99911 10.3721C8.1516 10.5744 8.29905 10.6278 8.69831 10.6251C9.47999 10.6196 10.1596 10.2864 10.2385 9.86981C10.3033 9.52839 10.0049 9.05513 9.59379 8.84739C9.38164 8.74023 8.93048 8.69771 8.71221 8.7643ZM9.626 9.47447C9.74652 9.30427 9.6938 9.12027 9.48882 8.99579C9.09836 8.75888 8.50795 8.95494 8.50795 9.32157C8.50795 9.50401 8.81584 9.7031 9.09809 9.7031C9.28596 9.7031 9.54301 9.59178 9.626 9.47447Z" fill="#CBCFD2"/>
</svg>
