<svg width="32" height="32" viewBox="0 0 32 32" fill="none" xmlns="http://www.w3.org/2000/svg">
<g clip-path="url(#clip0_7_7963)">
<path fill-rule="evenodd" clip-rule="evenodd" d="M1.67264 1.34044C1.70752 1.32943 1.74476 1.33145 1.77774 1.34536L11.8382 5.09945H20.1617L30.2102 1.34521C30.243 1.33145 30.2801 1.32948 30.3147 1.34039C30.3613 1.35501 30.3981 1.39107 30.4135 1.43734L31.9921 6.14812C32.0007 6.17373 32.0023 6.20117 31.9968 6.22762L30.96 11.2043L31.5417 11.6433C31.5797 11.672 31.6021 11.7169 31.6023 11.7646C31.6024 11.8122 31.5802 11.8572 31.5423 11.8861L30.7056 12.5241L31.3194 12.9993C31.355 13.0268 31.3766 13.0686 31.3784 13.1136C31.3802 13.1586 31.3621 13.202 31.3289 13.2323L30.4731 14.0132L30.9423 14.3509C30.9769 14.3758 30.9995 14.4142 31.0046 14.4566C31.0096 14.499 30.9967 14.5415 30.9689 14.5739L29.5827 16.187L31.742 22.8366C31.7482 22.8533 31.7513 22.871 31.7514 22.8888C31.7514 22.8946 31.7511 22.9005 31.7504 22.9063C31.7493 22.9168 31.747 22.9271 31.7437 22.9371L29.7191 29.8057C29.6957 29.8854 29.6127 29.9316 29.5326 29.9096L22.5613 27.9915L21.2547 29.0605C21.2515 29.0631 21.2483 29.0656 21.2449 29.0679L18.4607 30.9944C18.4353 31.0121 18.405 31.0216 18.374 31.0216H13.6135C13.5824 31.0216 13.5521 31.012 13.5265 30.9943L10.7548 29.0677C10.7515 29.0654 10.7483 29.063 10.7453 29.0605L9.43873 27.9915L2.46737 29.9096C2.38717 29.9316 2.3041 29.8853 2.28071 29.8055L0.268691 22.9373C0.263573 22.9218 0.260971 22.9056 0.260987 22.8893C0.260969 22.8716 0.264035 22.854 0.270042 22.8374L2.40511 16.1868L1.03074 14.5734C1.00313 14.541 0.990347 14.4985 0.995467 14.4562C1.00059 14.414 1.02315 14.3758 1.05771 14.3509L1.52683 14.0132L0.671147 13.2323C0.638071 13.2022 0.619943 13.159 0.621577 13.1142C0.62321 13.0694 0.644439 13.0277 0.679627 13L1.28323 12.525L0.445301 11.8861C0.407203 11.8571 0.384985 11.8118 0.385319 11.7639C0.385652 11.716 0.408497 11.671 0.446995 11.6425L1.03982 11.2034L0.003203 6.22762C-0.0022815 6.20129 -0.000701833 6.17399 0.0077816 6.14847L1.5739 1.43768C1.58931 1.39131 1.62604 1.35515 1.67264 1.34044ZM13.7351 25.9133L13.4931 26.0315L13.2135 28.5028C13.2063 28.5666 13.2398 28.628 13.2973 28.6565C13.3547 28.685 13.4239 28.6744 13.4703 28.6301L13.7119 28.3989H18.2792L18.5468 28.6344C18.5943 28.6762 18.6626 28.6843 18.7185 28.6548C18.7745 28.6253 18.8064 28.5643 18.7987 28.5015L18.4971 26.0324L18.2527 25.9134C18.2433 25.9095 18.2342 25.9046 18.2255 25.8986L17.6677 25.5152H14.3197L13.762 25.8986C13.7534 25.9045 13.7444 25.9094 13.7351 25.9133ZM21.6293 20.0619L19.6528 19.1625L18.8325 20.8822L21.6293 20.0619ZM10.3825 20.0621L12.3589 19.1628L13.1693 20.8824L10.3825 20.0621Z" fill="black"/>
</g>
<defs>
<clipPath id="clip0_7_7963">
<rect width="32" height="32" fill="white"/>
</clipPath>
</defs>
</svg>
