<svg width="32" height="33" viewBox="0 0 32 33" fill="none" xmlns="http://www.w3.org/2000/svg">
<path d="M27.5305 3.68066L17.5367 11.1031L19.3848 6.72398L27.5305 3.68066Z" fill="#E2761B" stroke="#E2761B" stroke-linecap="round" stroke-linejoin="round"/>
<path d="M4.45947 3.68066L14.3728 11.1734L12.6152 6.72398L4.45947 3.68066Z" fill="#E4761B" stroke="#E4761B" stroke-linecap="round" stroke-linejoin="round"/>
<path d="M23.9347 20.8857L21.2731 24.9636L26.968 26.5304L28.6051 20.9761L23.9347 20.8857Z" fill="#E4761B" stroke="#E4761B" stroke-linecap="round" stroke-linejoin="round"/>
<path d="M3.40491 20.9761L5.03203 26.5304L10.7269 24.9636L8.0653 20.8857L3.40491 20.9761Z" fill="#E4761B" stroke="#E4761B" stroke-linecap="round" stroke-linejoin="round"/>
<path d="M10.4055 13.9958L8.8186 16.3963L14.4733 16.6474L14.2725 10.5708L10.4055 13.9958Z" fill="#E4761B" stroke="#E4761B" stroke-linecap="round" stroke-linejoin="round"/>
<path d="M21.5845 13.9958L17.6673 10.5005L17.5367 16.6474L23.1814 16.3963L21.5845 13.9958Z" fill="#E4761B" stroke="#E4761B" stroke-linecap="round" stroke-linejoin="round"/>
<path d="M10.7269 24.9639L14.1218 23.3066L11.1889 21.0166L10.7269 24.9639Z" fill="#E4761B" stroke="#E4761B" stroke-linecap="round" stroke-linejoin="round"/>
<path d="M17.8682 23.3066L21.2731 24.9639L20.801 21.0166L17.8682 23.3066Z" fill="#E4761B" stroke="#E4761B" stroke-linecap="round" stroke-linejoin="round"/>
<path d="M21.2731 24.9639L17.8682 23.3066L18.1394 25.5264L18.1092 26.4604L21.2731 24.9639Z" fill="#D7C1B3" stroke="#D7C1B3" stroke-linecap="round" stroke-linejoin="round"/>
<path d="M10.7269 24.9639L13.8908 26.4604L13.8707 25.5264L14.1218 23.3066L10.7269 24.9639Z" fill="#D7C1B3" stroke="#D7C1B3" stroke-linecap="round" stroke-linejoin="round"/>
<path d="M13.941 19.5504L11.1086 18.7167L13.1074 17.8027L13.941 19.5504Z" fill="#233447" stroke="#233447" stroke-linecap="round" stroke-linejoin="round"/>
<path d="M18.049 19.5504L18.8826 17.8027L20.8914 18.7167L18.049 19.5504Z" fill="#233447" stroke="#233447" stroke-linecap="round" stroke-linejoin="round"/>
<path d="M10.727 24.9641L11.2091 20.8862L8.06531 20.9766L10.727 24.9641Z" fill="#CD6116" stroke="#CD6116" stroke-linecap="round" stroke-linejoin="round"/>
<path d="M20.791 20.8862L21.2731 24.9641L23.9348 20.9766L20.791 20.8862Z" fill="#CD6116" stroke="#CD6116" stroke-linecap="round" stroke-linejoin="round"/>
<path d="M23.1814 16.3965L17.5367 16.6476L18.059 19.5503L18.8927 17.8026L20.9015 18.7166L23.1814 16.3965Z" fill="#CD6116" stroke="#CD6116" stroke-linecap="round" stroke-linejoin="round"/>
<path d="M11.1086 18.7166L13.1174 17.8026L13.941 19.5503L14.4733 16.6476L8.8186 16.3965L11.1086 18.7166Z" fill="#CD6116" stroke="#CD6116" stroke-linecap="round" stroke-linejoin="round"/>
<path d="M8.8186 16.3965L11.189 21.0167L11.1086 18.7166L8.8186 16.3965Z" fill="#E4751F" stroke="#E4751F" stroke-linecap="round" stroke-linejoin="round"/>
<path d="M20.9015 18.7166L20.801 21.0167L23.1814 16.3965L20.9015 18.7166Z" fill="#E4751F" stroke="#E4751F" stroke-linecap="round" stroke-linejoin="round"/>
<path d="M14.4734 16.6475L13.941 19.5502L14.6039 22.9751L14.7546 18.4654L14.4734 16.6475Z" fill="#E4751F" stroke="#E4751F" stroke-linecap="round" stroke-linejoin="round"/>
<path d="M17.5367 16.6475L17.2655 18.4554L17.386 22.9751L18.059 19.5502L17.5367 16.6475Z" fill="#E4751F" stroke="#E4751F" stroke-linecap="round" stroke-linejoin="round"/>
<path d="M18.0591 19.5504L17.3861 22.9754L17.8682 23.3069L20.801 21.0169L20.9015 18.7168L18.0591 19.5504Z" fill="#F6851B" stroke="#F6851B" stroke-linecap="round" stroke-linejoin="round"/>
<path d="M11.1086 18.7168L11.189 21.0169L14.1218 23.3069L14.6039 22.9754L13.941 19.5504L11.1086 18.7168Z" fill="#F6851B" stroke="#F6851B" stroke-linecap="round" stroke-linejoin="round"/>
<path d="M18.1092 26.4604L18.1394 25.5263L17.8883 25.3054H14.1017L13.8707 25.5263L13.8908 26.4604L10.7269 24.9639L11.8318 25.8678L14.0716 27.4246H17.9184L20.1682 25.8678L21.2731 24.9639L18.1092 26.4604Z" fill="#C0AD9E" stroke="#C0AD9E" stroke-linecap="round" stroke-linejoin="round"/>
<path d="M17.8682 23.3065L17.3861 22.9751H14.6039L14.1218 23.3065L13.8707 25.5263L14.1017 25.3053H17.8883L18.1394 25.5263L17.8682 23.3065Z" fill="#161616" stroke="#161616" stroke-linecap="round" stroke-linejoin="round"/>
<path d="M27.9523 11.5852L28.806 7.48732L27.5304 3.68066L17.8682 10.852L21.5844 13.9958L26.8374 15.5325L28.0025 14.1766L27.5003 13.815L28.3038 13.0818L27.6811 12.5997L28.4846 11.987L27.9523 11.5852Z" fill="#763D16" stroke="#763D16" stroke-linecap="round" stroke-linejoin="round"/>
<path d="M3.19397 7.48732L4.0477 11.5852L3.50533 11.987L4.30885 12.5997L3.69617 13.0818L4.49968 13.815L3.99749 14.1766L5.15254 15.5325L10.4055 13.9958L14.1218 10.852L4.45951 3.68066L3.19397 7.48732Z" fill="#763D16" stroke="#763D16" stroke-linecap="round" stroke-linejoin="round"/>
<path d="M26.8374 15.5328L21.5845 13.9961L23.1814 16.3966L20.801 21.0168L23.9347 20.9766H28.6052L26.8374 15.5328Z" fill="#F6851B" stroke="#F6851B" stroke-linecap="round" stroke-linejoin="round"/>
<path d="M10.4055 13.9961L5.15255 15.5328L3.40491 20.9766H8.0653L11.189 21.0168L8.81859 16.3966L10.4055 13.9961Z" fill="#F6851B" stroke="#F6851B" stroke-linecap="round" stroke-linejoin="round"/>
<path d="M17.5368 16.6475L17.8682 10.8522L19.3949 6.72412H12.6152L14.1218 10.8522L14.4734 16.6475L14.5939 18.4755L14.6039 22.9752H17.3861L17.4062 18.4755L17.5368 16.6475Z" fill="#F6851B" stroke="#F6851B" stroke-linecap="round" stroke-linejoin="round"/>
</svg>
