<svg width="120" height="37" viewBox="0 0 120 37" fill="none" xmlns="http://www.w3.org/2000/svg">
<rect x="1.06348" y="1" width="118.437" height="35" rx="1.5" stroke="white"/>
<path d="M23.3137 23.68C22.7937 23.68 22.3297 23.604 21.9217 23.452C21.5137 23.292 21.1697 23.076 20.8897 22.804C20.6177 22.524 20.4057 22.196 20.2537 21.82C20.1097 21.436 20.0377 21.02 20.0377 20.572V15.052H21.1897V20.536C21.1897 21.192 21.3737 21.716 21.7417 22.108C22.1097 22.492 22.6337 22.684 23.3137 22.684C23.9857 22.684 24.5057 22.492 24.8737 22.108C25.2497 21.716 25.4377 21.192 25.4377 20.536V15.052H26.5657V20.572C26.5657 21.02 26.4937 21.436 26.3497 21.82C26.2057 22.196 25.9937 22.524 25.7137 22.804C25.4417 23.076 25.1017 23.292 24.6937 23.452C24.2937 23.604 23.8337 23.68 23.3137 23.68ZM27.5605 21.688H28.6885C28.7045 22.08 28.8565 22.372 29.1445 22.564C29.4405 22.748 29.8165 22.84 30.2725 22.84C30.7045 22.84 31.0565 22.752 31.3285 22.576C31.6005 22.392 31.7365 22.14 31.7365 21.82C31.7365 21.524 31.6245 21.308 31.4005 21.172C31.1845 21.028 30.8885 20.928 30.5125 20.872L29.5645 20.74C29.0285 20.66 28.5925 20.48 28.2565 20.2C27.9205 19.92 27.7525 19.516 27.7525 18.988C27.7525 18.412 27.9845 17.956 28.4485 17.62C28.9125 17.276 29.5045 17.104 30.2245 17.104C30.6165 17.104 30.9645 17.156 31.2685 17.26C31.5725 17.356 31.8285 17.492 32.0365 17.668C32.2445 17.836 32.4045 18.036 32.5165 18.268C32.6365 18.492 32.7005 18.728 32.7085 18.976H31.5925C31.5765 18.664 31.4485 18.416 31.2085 18.232C30.9765 18.04 30.6445 17.944 30.2125 17.944C29.7965 17.944 29.4645 18.036 29.2165 18.22C28.9765 18.396 28.8565 18.624 28.8565 18.904C28.8565 19.168 28.9445 19.372 29.1205 19.516C29.3045 19.652 29.5725 19.748 29.9245 19.804L30.8725 19.936C31.4725 20.016 31.9485 20.204 32.3005 20.5C32.6605 20.796 32.8405 21.208 32.8405 21.736C32.8405 22.336 32.5965 22.812 32.1085 23.164C31.6205 23.508 30.9965 23.68 30.2365 23.68C29.4285 23.68 28.7845 23.5 28.3045 23.14C27.8245 22.772 27.5765 22.288 27.5605 21.688ZM36.5173 23.668C36.0293 23.668 35.5973 23.584 35.2213 23.416C34.8453 23.248 34.5293 23.016 34.2733 22.72C34.0253 22.424 33.8333 22.076 33.6973 21.676C33.5693 21.276 33.5053 20.848 33.5053 20.392C33.5053 19.936 33.5733 19.508 33.7093 19.108C33.8453 18.708 34.0413 18.364 34.2973 18.076C34.5533 17.78 34.8653 17.548 35.2333 17.38C35.6093 17.212 36.0333 17.128 36.5053 17.128C36.9613 17.128 37.3653 17.208 37.7173 17.368C38.0773 17.52 38.3773 17.736 38.6173 18.016C38.8573 18.288 39.0413 18.612 39.1693 18.988C39.2973 19.364 39.3613 19.768 39.3613 20.2V20.644H34.6213V20.68C34.6213 21.328 34.8013 21.844 35.1613 22.228C35.5293 22.612 35.9853 22.804 36.5293 22.804C37.0093 22.804 37.3813 22.688 37.6453 22.456C37.9173 22.224 38.0773 21.972 38.1253 21.7H39.2413C39.1293 22.276 38.8333 22.748 38.3533 23.116C37.8733 23.484 37.2613 23.668 36.5173 23.668ZM36.5053 17.98C36.0173 17.98 35.5933 18.148 35.2333 18.484C34.8813 18.812 34.6813 19.268 34.6333 19.852H38.2453C38.2373 19.26 38.0693 18.8 37.7413 18.472C37.4133 18.144 37.0013 17.98 36.5053 17.98ZM40.415 23.5V17.296H41.471V18.34H41.483C41.579 18.068 41.763 17.82 42.035 17.596C42.307 17.372 42.707 17.26 43.235 17.26H44.075V18.28H43.031C42.447 18.28 42.047 18.436 41.831 18.748C41.623 19.06 41.519 19.444 41.519 19.9V23.5H40.415ZM45.9955 19.864V23.5H44.8915V17.296H45.9355V18.352H45.9475C46.1235 17.944 46.3915 17.64 46.7515 17.44C47.1115 17.232 47.5195 17.128 47.9755 17.128C48.2955 17.128 48.5955 17.184 48.8755 17.296C49.1635 17.4 49.4115 17.556 49.6195 17.764C49.8275 17.972 49.9915 18.232 50.1115 18.544C50.2315 18.856 50.2915 19.216 50.2915 19.624V23.5H49.1875V19.72C49.1875 19.168 49.0315 18.756 48.7195 18.484C48.4155 18.204 48.0595 18.064 47.6515 18.064C47.4355 18.064 47.2275 18.1 47.0275 18.172C46.8275 18.244 46.6515 18.356 46.4995 18.508C46.3475 18.652 46.2235 18.84 46.1275 19.072C46.0395 19.296 45.9955 19.56 45.9955 19.864ZM51.4626 19.024C51.5186 18.472 51.7626 18.02 52.1946 17.668C52.6266 17.308 53.2306 17.128 54.0066 17.128C54.7106 17.128 55.2906 17.3 55.7466 17.644C56.2026 17.98 56.4306 18.496 56.4306 19.192V22.132C56.4306 22.324 56.4666 22.452 56.5386 22.516C56.6186 22.58 56.7346 22.612 56.8866 22.612H57.2706V23.5H56.5626C56.1706 23.5 55.8906 23.416 55.7226 23.248C55.5546 23.072 55.4746 22.82 55.4826 22.492V22.372H55.4706C55.3186 22.756 55.0586 23.068 54.6906 23.308C54.3226 23.548 53.8786 23.668 53.3586 23.668C52.7506 23.668 52.2426 23.508 51.8346 23.188C51.4346 22.86 51.2346 22.408 51.2346 21.832C51.2346 21.264 51.4346 20.828 51.8346 20.524C52.2346 20.22 52.7586 20.016 53.4066 19.912L54.3426 19.756C54.6626 19.7 54.9026 19.616 55.0626 19.504C55.2226 19.384 55.3026 19.204 55.3026 18.964C55.3026 18.716 55.2026 18.488 55.0026 18.28C54.8106 18.072 54.4706 17.968 53.9826 17.968C53.5426 17.968 53.2026 18.064 52.9626 18.256C52.7226 18.44 52.5866 18.696 52.5546 19.024H51.4626ZM55.3386 20.92V20.104C55.2826 20.184 55.1826 20.264 55.0386 20.344C54.9026 20.424 54.7266 20.48 54.5106 20.512L53.5986 20.668C53.2066 20.732 52.8946 20.852 52.6626 21.028C52.4306 21.196 52.3146 21.428 52.3146 21.724V21.796C52.3146 22.116 52.4306 22.364 52.6626 22.54C52.8946 22.716 53.1946 22.804 53.5626 22.804C54.0826 22.804 54.5066 22.632 54.8346 22.288C55.1706 21.936 55.3386 21.48 55.3386 20.92ZM57.9579 23.5V17.296H59.0019V18.244H59.0139C59.1739 17.876 59.4179 17.6 59.7459 17.416C60.0819 17.224 60.4579 17.128 60.8739 17.128C61.3299 17.128 61.7339 17.236 62.0859 17.452C62.4379 17.668 62.6939 17.988 62.8539 18.412H62.8659C63.0419 17.98 63.3099 17.66 63.6699 17.452C64.0299 17.236 64.4299 17.128 64.8699 17.128C65.1739 17.128 65.4579 17.18 65.7219 17.284C65.9939 17.388 66.2259 17.54 66.4179 17.74C66.6179 17.932 66.7739 18.176 66.8859 18.472C66.9979 18.76 67.0539 19.092 67.0539 19.468V23.5H65.9499V19.564C65.9499 19.06 65.8099 18.684 65.5299 18.436C65.2499 18.188 64.9259 18.064 64.5579 18.064C64.1659 18.064 63.8179 18.2 63.5139 18.472C63.2099 18.744 63.0579 19.156 63.0579 19.708V23.5H61.9539V19.564C61.9539 19.06 61.8139 18.684 61.5339 18.436C61.2539 18.188 60.9299 18.064 60.5619 18.064C60.1699 18.064 59.8219 18.2 59.5179 18.472C59.2139 18.744 59.0619 19.156 59.0619 19.708V23.5H57.9579ZM71.0525 23.668C70.5645 23.668 70.1325 23.584 69.7565 23.416C69.3805 23.248 69.0645 23.016 68.8085 22.72C68.5605 22.424 68.3685 22.076 68.2325 21.676C68.1045 21.276 68.0405 20.848 68.0405 20.392C68.0405 19.936 68.1085 19.508 68.2445 19.108C68.3805 18.708 68.5765 18.364 68.8325 18.076C69.0885 17.78 69.4005 17.548 69.7685 17.38C70.1445 17.212 70.5685 17.128 71.0405 17.128C71.4965 17.128 71.9005 17.208 72.2525 17.368C72.6125 17.52 72.9125 17.736 73.1525 18.016C73.3925 18.288 73.5765 18.612 73.7045 18.988C73.8325 19.364 73.8965 19.768 73.8965 20.2V20.644H69.1565V20.68C69.1565 21.328 69.3365 21.844 69.6965 22.228C70.0645 22.612 70.5205 22.804 71.0645 22.804C71.5445 22.804 71.9165 22.688 72.1805 22.456C72.4525 22.224 72.6125 21.972 72.6605 21.7H73.7765C73.6645 22.276 73.3685 22.748 72.8885 23.116C72.4085 23.484 71.7965 23.668 71.0525 23.668ZM71.0405 17.98C70.5525 17.98 70.1285 18.148 69.7685 18.484C69.4165 18.812 69.2165 19.268 69.1685 19.852H72.7805C72.7725 19.26 72.6045 18.8 72.2765 18.472C71.9485 18.144 71.5365 17.98 71.0405 17.98Z" fill="white"/>
<rect x="84.2817" y="6.5" width="24" height="24" rx="12" fill="white"/>
</svg>
